<?xml version="1.0" encoding="UTF-8" standalone="no"?>
<!DOCTYPE svg PUBLIC "-//W3C//DTD SVG 1.1//EN" "http://www.w3.org/Graphics/SVG/1.1/DTD/svg11.dtd">
<svg width="100%" height="100%" viewBox="0 0 4096 4096" version="1.1" xmlns="http://www.w3.org/2000/svg" xmlns:xlink="http://www.w3.org/1999/xlink" xml:space="preserve" xmlns:serif="http://www.serif.com/" style="fill-rule:evenodd;clip-rule:evenodd;stroke-linejoin:round;stroke-miterlimit:2;">
    <g transform="matrix(1,0,0,0.98794,0,0)">
        <path d="M952,0L3144,0L3144,751.462L4096,751.462L4096,3394.54L3144,3394.54L3144,4146L952,4146L952,3394.54L0,3394.54L0,751.462L952,751.462L952,0Z" style="fill:rgb(255,241,214);"/>
    </g>
    <g>
        <g transform="matrix(1.11607,0,0,2.03397,1048,-4235.15)">
            <rect x="0" y="3731" width="1792" height="365" style="fill:rgb(200,85,61);"/>
        </g>
        <g transform="matrix(1.11607,0,0,2.03397,-1048,-4235.15)">
            <path d="M1792,4096L1122.51,4096C1021.23,4096 939.008,4050.88 939.008,3995.31L939.008,3731L1792,3731L1792,4096Z" style="fill:rgb(200,85,61);"/>
        </g>
        <g transform="matrix(1.11607,0,0,2.03397,3144,-4235.15)">
            <path d="M669.491,4096L0,4096L0,3731L852.992,3731L852.992,3995.31C852.992,4050.88 770.768,4096 669.491,4096Z" style="fill:rgb(200,85,61);"/>
        </g>
        <g transform="matrix(1.11607,0,0,2.03397,2096,-5073.55)">
            <rect x="0" y="3731" width="1792" height="365" style="fill:rgb(200,85,61);"/>
        </g>
        <g transform="matrix(1.11607,0,0,2.03397,0,-5073.55)">
            <rect x="0" y="3731" width="1792" height="365" style="fill:rgb(200,85,61);"/>
        </g>
        <g transform="matrix(1.11607,0,0,2.03397,2096,-6750.35)">
            <rect x="0" y="3731" width="1792" height="365" style="fill:rgb(200,85,61);"/>
        </g>
        <g transform="matrix(1.11607,0,0,2.03397,0,-6750.35)">
            <rect x="0" y="3731" width="1792" height="365" style="fill:rgb(200,85,61);"/>
        </g>
        <g transform="matrix(1.11607,0,0,2.03397,1048,-5911.95)">
            <rect x="0" y="3731" width="1792" height="365" style="fill:rgb(200,85,61);"/>
        </g>
        <g transform="matrix(1.11607,0,0,2.03397,-1048,-5911.95)">
            <rect x="0" y="3731" width="1792" height="365" style="fill:rgb(200,85,61);"/>
        </g>
        <g transform="matrix(1.11607,0,0,2.03397,3144,-5911.95)">
            <rect x="0" y="3731" width="1792" height="365" style="fill:rgb(200,85,61);"/>
        </g>
        <g transform="matrix(1.11607,0,0,2.03397,1048,-7588.75)">
            <rect x="0" y="3731" width="1792" height="365" style="fill:rgb(200,85,61);"/>
        </g>
        <g transform="matrix(1.11607,0,0,2.03397,-1048,-7588.75)">
            <path d="M1122.51,3731L1792,3731L1792,4096L939.008,4096L939.008,3831.69C939.008,3776.12 1021.23,3731 1122.51,3731Z" style="fill:rgb(200,85,61);"/>
        </g>
        <g transform="matrix(1.11607,0,0,2.03397,3144,-7588.75)">
            <path d="M0,3731L669.491,3731C770.768,3731 852.992,3776.12 852.992,3831.69L852.992,4096L0,4096L0,3731Z" style="fill:rgb(200,85,61);"/>
        </g>
    </g>
    <g transform="matrix(1,0,0,1,-937.557,-25.9015)">
        <g transform="matrix(800,0,0,800,1216.36,2073.9)">
            <path d="M0.723,-0.001L0.757,-0.003L0.791,0.001L0.825,0.004L0.893,0.002L0.928,0.005L0.945,0.006L0.962,0.004L0.97,-0L0.974,-0.003L0.977,-0.008L0.979,-0.015L0.981,-0.029L0.982,-0.048L0.981,-0.081L0.982,-0.114L0.979,-0.146L0.977,-0.152L0.973,-0.156L0.968,-0.158L0.961,-0.16L0.909,-0.166L0.898,-0.168L0.895,-0.177L0.89,-0.213L0.89,-0.25L0.891,-0.287L0.893,-0.324L0.894,-0.36L0.896,-0.397L0.892,-0.471L0.889,-0.508L0.891,-0.544L0.892,-0.55L0.896,-0.554L0.908,-0.557L0.934,-0.56L0.96,-0.564L0.965,-0.565L0.97,-0.567L0.973,-0.573L0.973,-0.576L0.979,-0.608L0.98,-0.64L0.983,-0.674L0.981,-0.707L0.979,-0.713L0.975,-0.719L0.967,-0.723L0.962,-0.724L0.944,-0.726L0.927,-0.725L0.893,-0.72L0.824,-0.722L0.79,-0.721L0.756,-0.719L0.722,-0.722L0.688,-0.724L0.68,-0.722L0.674,-0.716L0.665,-0.705L0.637,-0.66L0.593,-0.608L0.553,-0.554L0.532,-0.528L0.507,-0.506L0.502,-0.502L0.496,-0.5L0.49,-0.502L0.486,-0.505L0.464,-0.529L0.457,-0.541L0.446,-0.558L0.423,-0.582L0.4,-0.607L0.362,-0.663L0.342,-0.689L0.32,-0.714L0.315,-0.721L0.309,-0.724L0.275,-0.724L0.24,-0.722L0.138,-0.722L0.104,-0.721L0.069,-0.723L0.059,-0.722L0.036,-0.719L0.03,-0.718L0.024,-0.716L0.019,-0.706L0.017,-0.687L0.019,-0.673L0.023,-0.64L0.019,-0.608L0.018,-0.593L0.02,-0.575L0.022,-0.569L0.025,-0.564L0.031,-0.56L0.035,-0.559L0.051,-0.558L0.065,-0.561L0.082,-0.564L0.094,-0.563L0.099,-0.561L0.101,-0.556L0.102,-0.544L0.104,-0.507L0.102,-0.471L0.105,-0.434L0.107,-0.397L0.104,-0.36L0.102,-0.324L0.102,-0.287L0.101,-0.25L0.103,-0.213L0.104,-0.176L0.104,-0.165L0.098,-0.158L0.035,-0.16L0.023,-0.156L0.017,-0.146L0.015,-0.133L0.017,-0.114L0.022,-0.081L0.017,-0.048L0.015,-0.032L0.017,-0.015L0.019,-0.009L0.023,-0.007L0.036,-0.004L0.07,-0.002L0.103,-0.004L0.172,0.004L0.206,-0L0.24,-0.005L0.274,-0.001L0.308,0.004L0.343,0.006L0.377,0.004L0.383,0.002L0.388,-0.003L0.391,-0.007L0.393,-0.015L0.394,-0.048L0.391,-0.081L0.392,-0.113L0.388,-0.145L0.386,-0.156L0.381,-0.16L0.376,-0.162L0.361,-0.163L0.348,-0.161L0.32,-0.16L0.314,-0.162L0.309,-0.165L0.305,-0.176L0.303,-0.218L0.306,-0.259L0.305,-0.301L0.305,-0.342L0.303,-0.383L0.302,-0.425L0.304,-0.429L0.31,-0.432L0.316,-0.434L0.321,-0.432L0.327,-0.423L0.338,-0.404L0.355,-0.376L0.377,-0.352L0.399,-0.329L0.418,-0.302L0.436,-0.275L0.459,-0.251L0.482,-0.229L0.487,-0.225L0.494,-0.221L0.504,-0.221L0.512,-0.226L0.539,-0.258L0.563,-0.291L0.589,-0.323L0.615,-0.356L0.643,-0.387L0.67,-0.418L0.676,-0.421L0.684,-0.421L0.689,-0.417L0.692,-0.41L0.69,-0.371L0.688,-0.293L0.688,-0.254L0.692,-0.215L0.692,-0.176L0.691,-0.172L0.687,-0.166L0.674,-0.163L0.647,-0.163L0.62,-0.164L0.614,-0.162L0.608,-0.158L0.606,-0.154L0.604,-0.146L0.6,-0.113L0.602,-0.081L0.603,-0.048L0.608,-0.016L0.611,-0.007L0.621,-0.004L0.654,0.001L0.688,0.002L0.723,-0.001ZM0.97,-0.541L0.965,-0.54L0.964,-0.54L0.938,-0.536L0.914,-0.533L0.916,-0.473L0.916,-0.472L0.92,-0.398L0.918,-0.359L0.917,-0.323L0.915,-0.286L0.914,-0.25L0.914,-0.215L0.917,-0.189L0.937,-0.187L0.945,-0.186L0.945,-0.195L0.946,-0.232L0.948,-0.269L0.949,-0.305L0.951,-0.342L0.947,-0.416L0.944,-0.453L0.946,-0.499L0.947,-0.505L0.951,-0.509L0.963,-0.512L0.989,-0.515L1.011,-0.519L1.016,-0.52L1.021,-0.522L1.024,-0.528L1.024,-0.531L1.03,-0.553L1.031,-0.585L1.034,-0.619L1.032,-0.652L1.03,-0.658L1.026,-0.664L1.018,-0.668L1.007,-0.67L1.004,-0.639L1.003,-0.604L0.996,-0.568L0.996,-0.565L0.992,-0.557L0.988,-0.548L0.979,-0.544L0.97,-0.541ZM0.214,-0.648L0.216,-0.647L0.217,-0.646L0.217,-0.645L0.216,-0.643L0.214,-0.644L0.214,-0.645L0.213,-0.646L0.214,-0.648ZM0.227,-0.645L0.23,-0.644L0.232,-0.642L0.232,-0.639L0.229,-0.638L0.227,-0.64L0.227,-0.645ZM0.241,-0.632L0.244,-0.631L0.248,-0.625L0.246,-0.614L0.242,-0.624L0.239,-0.63L0.241,-0.632ZM0.308,-0.626L0.316,-0.624L0.318,-0.621L0.316,-0.619L0.313,-0.617L0.309,-0.62L0.308,-0.623L0.308,-0.626ZM0.2,-0.625L0.201,-0.625L0.203,-0.624L0.203,-0.622L0.202,-0.622L0.2,-0.621L0.199,-0.622L0.198,-0.624L0.2,-0.625ZM0.211,-0.62L0.212,-0.621L0.214,-0.621L0.216,-0.617L0.213,-0.617L0.211,-0.618L0.211,-0.62ZM0.276,-0.613L0.277,-0.614L0.279,-0.614L0.281,-0.613L0.281,-0.611L0.28,-0.61L0.275,-0.61L0.276,-0.613ZM0.301,-0.613L0.309,-0.609L0.311,-0.604L0.31,-0.6L0.306,-0.6L0.302,-0.602L0.3,-0.608L0.301,-0.613ZM0.649,-0.61L0.65,-0.611L0.651,-0.611L0.652,-0.609L0.651,-0.607L0.65,-0.606L0.649,-0.606L0.649,-0.61ZM0.71,-0.609L0.713,-0.609L0.715,-0.607L0.715,-0.606L0.714,-0.605L0.712,-0.604L0.709,-0.607L0.71,-0.609ZM0.221,-0.582L0.224,-0.588L0.224,-0.595L0.225,-0.604L0.233,-0.603L0.235,-0.606L0.239,-0.605L0.243,-0.605L0.24,-0.597L0.24,-0.592L0.241,-0.589L0.238,-0.587L0.234,-0.587L0.233,-0.592L0.228,-0.591L0.225,-0.589L0.224,-0.582L0.226,-0.569L0.226,-0.563L0.221,-0.569L0.221,-0.582ZM0.257,-0.604L0.26,-0.605L0.263,-0.604L0.264,-0.602L0.263,-0.6L0.261,-0.599L0.258,-0.6L0.257,-0.602L0.257,-0.604ZM0.272,-0.599L0.278,-0.602L0.292,-0.6L0.308,-0.592L0.295,-0.589L0.283,-0.587L0.277,-0.585L0.272,-0.59L0.272,-0.599ZM0.206,-0.596L0.208,-0.597L0.213,-0.597L0.216,-0.593L0.214,-0.592L0.211,-0.592L0.207,-0.591L0.205,-0.594L0.206,-0.596ZM0.322,-0.589L0.326,-0.593L0.33,-0.591L0.336,-0.586L0.343,-0.582L0.343,-0.579L0.335,-0.581L0.328,-0.582L0.324,-0.583L0.322,-0.586L0.322,-0.589ZM0.376,-0.522L0.369,-0.523L0.365,-0.529L0.359,-0.536L0.352,-0.533L0.353,-0.526L0.338,-0.526L0.334,-0.535L0.335,-0.542L0.348,-0.538L0.357,-0.543L0.369,-0.543L0.374,-0.548L0.379,-0.552L0.379,-0.557L0.376,-0.564L0.374,-0.571L0.369,-0.577L0.366,-0.587L0.379,-0.58L0.389,-0.571L0.383,-0.561L0.386,-0.554L0.381,-0.551L0.378,-0.544L0.374,-0.538L0.373,-0.534L0.377,-0.531L0.382,-0.531L0.385,-0.528L0.382,-0.523L0.376,-0.522ZM0.249,-0.571L0.249,-0.578L0.254,-0.582L0.257,-0.581L0.259,-0.579L0.257,-0.572L0.249,-0.571ZM0.351,-0.582L0.359,-0.579L0.367,-0.567L0.362,-0.556L0.354,-0.555L0.351,-0.563L0.349,-0.575L0.351,-0.582ZM0.643,-0.581L0.647,-0.582L0.647,-0.58L0.645,-0.577L0.641,-0.576L0.643,-0.581ZM0.322,-0.581L0.329,-0.579L0.331,-0.577L0.338,-0.565L0.331,-0.554L0.329,-0.563L0.323,-0.57L0.318,-0.575L0.322,-0.581ZM0.274,-0.568L0.272,-0.573L0.27,-0.58L0.277,-0.575L0.28,-0.568L0.288,-0.56L0.295,-0.55L0.282,-0.554L0.278,-0.566L0.274,-0.568ZM0.3,-0.572L0.298,-0.58L0.315,-0.568L0.309,-0.559L0.309,-0.571L0.3,-0.572ZM0.685,-0.471L0.683,-0.471L0.681,-0.47L0.681,-0.468L0.679,-0.466L0.676,-0.468L0.676,-0.471L0.674,-0.474L0.673,-0.477L0.672,-0.479L0.674,-0.48L0.678,-0.479L0.682,-0.48L0.682,-0.483L0.68,-0.486L0.68,-0.49L0.681,-0.491L0.684,-0.491L0.686,-0.488L0.686,-0.484L0.691,-0.484L0.694,-0.486L0.697,-0.489L0.696,-0.491L0.698,-0.493L0.695,-0.501L0.69,-0.507L0.686,-0.509L0.683,-0.512L0.679,-0.512L0.678,-0.516L0.674,-0.526L0.673,-0.525L0.671,-0.522L0.67,-0.519L0.671,-0.511L0.665,-0.509L0.656,-0.507L0.651,-0.514L0.649,-0.516L0.645,-0.518L0.645,-0.523L0.647,-0.528L0.65,-0.533L0.649,-0.542L0.647,-0.55L0.644,-0.546L0.643,-0.541L0.644,-0.534L0.64,-0.528L0.636,-0.535L0.634,-0.543L0.629,-0.541L0.624,-0.541L0.622,-0.543L0.62,-0.544L0.622,-0.545L0.626,-0.545L0.627,-0.547L0.629,-0.548L0.629,-0.549L0.63,-0.55L0.627,-0.554L0.629,-0.559L0.631,-0.558L0.633,-0.556L0.638,-0.559L0.643,-0.56L0.649,-0.558L0.65,-0.559L0.651,-0.559L0.655,-0.564L0.66,-0.566L0.661,-0.566L0.661,-0.567L0.665,-0.571L0.664,-0.575L0.665,-0.578L0.666,-0.579L0.666,-0.578L0.667,-0.575L0.667,-0.572L0.671,-0.574L0.677,-0.571L0.68,-0.566L0.685,-0.564L0.688,-0.56L0.689,-0.558L0.689,-0.551L0.691,-0.548L0.694,-0.55L0.694,-0.553L0.698,-0.554L0.702,-0.551L0.703,-0.547L0.7,-0.543L0.694,-0.542L0.69,-0.538L0.685,-0.545L0.686,-0.554L0.685,-0.556L0.684,-0.559L0.68,-0.56L0.677,-0.562L0.676,-0.562L0.675,-0.563L0.672,-0.564L0.671,-0.567L0.669,-0.567L0.668,-0.566L0.668,-0.564L0.669,-0.562L0.668,-0.56L0.667,-0.557L0.668,-0.554L0.666,-0.546L0.666,-0.542L0.665,-0.54L0.663,-0.542L0.662,-0.545L0.66,-0.546L0.659,-0.548L0.653,-0.544L0.654,-0.537L0.66,-0.535L0.666,-0.532L0.667,-0.532L0.667,-0.531L0.669,-0.536L0.673,-0.537L0.68,-0.534L0.686,-0.527L0.684,-0.525L0.69,-0.522L0.689,-0.515L0.69,-0.514L0.691,-0.512L0.695,-0.509L0.699,-0.505L0.706,-0.507L0.71,-0.505L0.72,-0.508L0.723,-0.502L0.717,-0.501L0.707,-0.498L0.704,-0.5L0.703,-0.5L0.704,-0.497L0.704,-0.493L0.705,-0.492L0.707,-0.491L0.703,-0.488L0.699,-0.487L0.695,-0.476L0.685,-0.471ZM0.695,-0.575L0.699,-0.579L0.702,-0.578L0.703,-0.576L0.701,-0.573L0.698,-0.571L0.695,-0.572L0.695,-0.575ZM0.746,-0.578L0.748,-0.579L0.75,-0.578L0.751,-0.577L0.751,-0.575L0.749,-0.575L0.748,-0.576L0.746,-0.577L0.746,-0.578ZM0.725,-0.568L0.729,-0.567L0.732,-0.57L0.736,-0.571L0.737,-0.569L0.729,-0.562L0.721,-0.567L0.725,-0.568ZM0.713,-0.567L0.714,-0.563L0.713,-0.559L0.717,-0.557L0.723,-0.552L0.728,-0.547L0.73,-0.544L0.728,-0.542L0.724,-0.542L0.721,-0.545L0.719,-0.549L0.717,-0.552L0.709,-0.558L0.708,-0.563L0.713,-0.567ZM0.191,-0.56L0.193,-0.563L0.195,-0.563L0.195,-0.561L0.193,-0.558L0.194,-0.556L0.194,-0.552L0.191,-0.556L0.191,-0.56ZM0.265,-0.555L0.262,-0.553L0.26,-0.555L0.259,-0.561L0.265,-0.563L0.269,-0.559L0.265,-0.555ZM0.744,-0.554L0.747,-0.554L0.748,-0.552L0.747,-0.55L0.746,-0.55L0.744,-0.551L0.743,-0.553L0.744,-0.554ZM0.677,-0.546L0.675,-0.543L0.673,-0.542L0.672,-0.543L0.67,-0.546L0.672,-0.549L0.674,-0.55L0.676,-0.549L0.677,-0.546ZM0.33,-0.539L0.327,-0.535L0.324,-0.54L0.325,-0.545L0.329,-0.545L0.33,-0.539ZM0.282,-0.542L0.285,-0.543L0.29,-0.538L0.292,-0.531L0.281,-0.54L0.282,-0.542ZM0.309,-0.535L0.309,-0.532L0.305,-0.532L0.303,-0.535L0.301,-0.537L0.302,-0.54L0.305,-0.54L0.307,-0.537L0.309,-0.535ZM0.718,-0.536L0.717,-0.533L0.715,-0.533L0.714,-0.534L0.713,-0.537L0.714,-0.539L0.716,-0.54L0.717,-0.539L0.718,-0.536ZM0.39,-0.538L0.392,-0.538L0.393,-0.537L0.393,-0.533L0.394,-0.53L0.392,-0.531L0.388,-0.535L0.39,-0.538ZM0.198,-0.532L0.198,-0.536L0.202,-0.537L0.203,-0.534L0.202,-0.531L0.201,-0.525L0.194,-0.525L0.197,-0.528L0.198,-0.532ZM0.185,-0.532L0.186,-0.535L0.19,-0.535L0.189,-0.532L0.186,-0.53L0.185,-0.531L0.185,-0.532ZM0.708,-0.529L0.712,-0.527L0.714,-0.525L0.717,-0.524L0.72,-0.526L0.723,-0.524L0.722,-0.52L0.72,-0.517L0.717,-0.515L0.713,-0.517L0.711,-0.515L0.708,-0.514L0.706,-0.511L0.703,-0.512L0.703,-0.515L0.706,-0.516L0.707,-0.523L0.705,-0.53L0.708,-0.529ZM0.289,-0.516L0.285,-0.52L0.284,-0.525L0.304,-0.527L0.302,-0.523L0.301,-0.519L0.294,-0.512L0.3,-0.506L0.291,-0.509L0.289,-0.516ZM0.608,-0.505L0.607,-0.513L0.604,-0.517L0.601,-0.52L0.597,-0.52L0.593,-0.518L0.589,-0.517L0.585,-0.514L0.579,-0.512L0.582,-0.52L0.587,-0.527L0.595,-0.523L0.599,-0.525L0.602,-0.522L0.61,-0.516L0.613,-0.516L0.615,-0.518L0.614,-0.522L0.617,-0.523L0.62,-0.522L0.621,-0.517L0.621,-0.513L0.617,-0.51L0.613,-0.506L0.616,-0.502L0.62,-0.502L0.621,-0.498L0.622,-0.492L0.616,-0.49L0.611,-0.49L0.613,-0.499L0.608,-0.505ZM0.226,-0.522L0.228,-0.525L0.231,-0.526L0.232,-0.524L0.229,-0.522L0.226,-0.522ZM0.325,-0.518L0.323,-0.515L0.319,-0.516L0.317,-0.519L0.317,-0.523L0.32,-0.526L0.325,-0.526L0.331,-0.523L0.338,-0.52L0.345,-0.521L0.353,-0.52L0.354,-0.518L0.353,-0.516L0.344,-0.513L0.334,-0.516L0.33,-0.519L0.325,-0.518ZM0.389,-0.521L0.391,-0.523L0.395,-0.525L0.399,-0.522L0.401,-0.519L0.4,-0.516L0.395,-0.515L0.39,-0.518L0.389,-0.521ZM0.632,-0.522L0.632,-0.523L0.633,-0.524L0.637,-0.524L0.637,-0.523L0.636,-0.522L0.634,-0.521L0.632,-0.522ZM0.63,-0.508L0.631,-0.514L0.633,-0.514L0.636,-0.508L0.635,-0.501L0.633,-0.498L0.634,-0.495L0.636,-0.494L0.636,-0.491L0.634,-0.489L0.632,-0.49L0.629,-0.492L0.629,-0.495L0.631,-0.499L0.632,-0.504L0.63,-0.508ZM0.32,-0.493L0.311,-0.493L0.302,-0.496L0.299,-0.496L0.296,-0.499L0.298,-0.502L0.302,-0.503L0.305,-0.505L0.308,-0.508L0.31,-0.513L0.316,-0.512L0.322,-0.507L0.322,-0.501L0.324,-0.496L0.32,-0.493ZM0.562,-0.505L0.561,-0.505L0.56,-0.506L0.556,-0.507L0.554,-0.51L0.556,-0.512L0.561,-0.512L0.564,-0.509L0.564,-0.508L0.565,-0.507L0.568,-0.505L0.567,-0.501L0.564,-0.501L0.562,-0.505ZM0.339,-0.495L0.338,-0.495L0.335,-0.49L0.33,-0.492L0.329,-0.497L0.335,-0.499L0.335,-0.5L0.337,-0.502L0.338,-0.507L0.342,-0.51L0.344,-0.508L0.345,-0.506L0.345,-0.499L0.34,-0.496L0.339,-0.495ZM0.665,-0.5L0.667,-0.502L0.669,-0.502L0.672,-0.499L0.671,-0.497L0.669,-0.496L0.666,-0.497L0.665,-0.5ZM0.241,-0.491L0.24,-0.492L0.241,-0.494L0.245,-0.495L0.25,-0.494L0.246,-0.49L0.241,-0.491ZM0.358,-0.492L0.362,-0.49L0.362,-0.487L0.36,-0.485L0.357,-0.483L0.355,-0.484L0.353,-0.488L0.354,-0.491L0.358,-0.492ZM0.571,-0.485L0.572,-0.485L0.572,-0.486L0.58,-0.491L0.588,-0.486L0.582,-0.484L0.578,-0.481L0.575,-0.478L0.571,-0.48L0.571,-0.485ZM0.601,-0.48L0.605,-0.487L0.607,-0.491L0.609,-0.491L0.608,-0.486L0.608,-0.479L0.606,-0.477L0.604,-0.477L0.602,-0.478L0.601,-0.48ZM0.434,-0.478L0.435,-0.482L0.439,-0.483L0.445,-0.475L0.444,-0.471L0.44,-0.47L0.436,-0.473L0.434,-0.478ZM0.633,-0.479L0.633,-0.481L0.637,-0.482L0.64,-0.48L0.637,-0.477L0.633,-0.479ZM0.37,-0.471L0.368,-0.466L0.365,-0.463L0.363,-0.459L0.367,-0.454L0.365,-0.45L0.359,-0.451L0.353,-0.455L0.351,-0.461L0.353,-0.465L0.35,-0.47L0.348,-0.475L0.345,-0.478L0.346,-0.481L0.35,-0.481L0.351,-0.477L0.362,-0.475L0.373,-0.476L0.37,-0.471ZM0.543,-0.466L0.537,-0.467L0.539,-0.472L0.546,-0.478L0.554,-0.474L0.555,-0.469L0.55,-0.467L0.546,-0.466L0.543,-0.466ZM0.581,-0.473L0.583,-0.475L0.585,-0.474L0.586,-0.471L0.583,-0.468L0.581,-0.468L0.581,-0.473ZM0.196,-0.468L0.189,-0.472L0.189,-0.474L0.196,-0.474L0.203,-0.473L0.196,-0.468ZM0.619,-0.472L0.625,-0.468L0.617,-0.468L0.617,-0.462L0.612,-0.461L0.619,-0.472ZM0.242,-0.464L0.239,-0.464L0.239,-0.467L0.241,-0.47L0.243,-0.469L0.243,-0.467L0.242,-0.464ZM0.608,-0.443L0.602,-0.443L0.599,-0.448L0.599,-0.457L0.603,-0.468L0.606,-0.459L0.609,-0.451L0.61,-0.446L0.608,-0.443ZM0.64,-0.466L0.641,-0.467L0.643,-0.467L0.643,-0.465L0.642,-0.463L0.64,-0.462L0.639,-0.463L0.638,-0.465L0.64,-0.466ZM0.416,-0.458L0.414,-0.452L0.398,-0.438L0.394,-0.436L0.391,-0.438L0.391,-0.445L0.396,-0.448L0.401,-0.45L0.406,-0.453L0.41,-0.459L0.414,-0.464L0.421,-0.465L0.427,-0.457L0.422,-0.456L0.416,-0.458ZM0.387,-0.455L0.382,-0.454L0.378,-0.457L0.377,-0.459L0.379,-0.461L0.383,-0.462L0.387,-0.46L0.387,-0.455ZM0.632,-0.456L0.625,-0.453L0.636,-0.462L0.632,-0.456ZM0.665,-0.446L0.663,-0.444L0.66,-0.444L0.659,-0.45L0.657,-0.457L0.66,-0.456L0.662,-0.455L0.665,-0.452L0.668,-0.45L0.669,-0.452L0.671,-0.454L0.67,-0.448L0.665,-0.446ZM0.49,-0.449L0.488,-0.446L0.486,-0.446L0.485,-0.448L0.484,-0.452L0.485,-0.454L0.488,-0.455L0.49,-0.453L0.49,-0.449ZM0.22,-0.449L0.222,-0.447L0.221,-0.446L0.22,-0.446L0.217,-0.443L0.217,-0.439L0.218,-0.437L0.218,-0.436L0.22,-0.434L0.221,-0.431L0.222,-0.432L0.221,-0.432L0.22,-0.435L0.221,-0.438L0.226,-0.434L0.224,-0.429L0.222,-0.428L0.22,-0.429L0.219,-0.428L0.217,-0.427L0.21,-0.422L0.201,-0.417L0.199,-0.419L0.2,-0.422L0.202,-0.423L0.206,-0.427L0.209,-0.432L0.209,-0.434L0.212,-0.439L0.214,-0.445L0.211,-0.447L0.211,-0.451L0.218,-0.449L0.22,-0.449ZM0.572,-0.45L0.572,-0.443L0.575,-0.436L0.569,-0.443L0.572,-0.45ZM0.591,-0.447L0.591,-0.45L0.593,-0.45L0.594,-0.449L0.594,-0.446L0.592,-0.447L0.591,-0.447ZM0.432,-0.42L0.429,-0.423L0.421,-0.433L0.428,-0.444L0.43,-0.438L0.429,-0.433L0.433,-0.427L0.435,-0.421L0.432,-0.42ZM0.459,-0.44L0.456,-0.439L0.454,-0.44L0.452,-0.442L0.452,-0.444L0.455,-0.444L0.458,-0.443L0.459,-0.442L0.459,-0.44ZM0.651,-0.429L0.651,-0.426L0.65,-0.425L0.647,-0.426L0.647,-0.428L0.645,-0.43L0.643,-0.433L0.639,-0.434L0.639,-0.438L0.642,-0.442L0.646,-0.442L0.649,-0.443L0.651,-0.441L0.652,-0.435L0.651,-0.429ZM0.677,-0.442L0.672,-0.435L0.67,-0.436L0.67,-0.438L0.672,-0.441L0.677,-0.442ZM0.632,-0.435L0.628,-0.434L0.626,-0.438L0.629,-0.441L0.631,-0.438L0.633,-0.436L0.632,-0.435ZM0.602,-0.434L0.601,-0.434L0.6,-0.433L0.599,-0.435L0.599,-0.438L0.602,-0.438L0.603,-0.436L0.602,-0.434ZM0.618,-0.428L0.614,-0.431L0.616,-0.435L0.621,-0.433L0.622,-0.428L0.618,-0.428ZM0.57,-0.427L0.566,-0.426L0.569,-0.429L0.573,-0.432L0.57,-0.427ZM0.593,-0.426L0.587,-0.424L0.583,-0.422L0.582,-0.423L0.583,-0.425L0.586,-0.428L0.593,-0.426ZM0.172,-0.419L0.171,-0.42L0.169,-0.421L0.165,-0.418L0.162,-0.414L0.163,-0.421L0.169,-0.423L0.173,-0.423L0.172,-0.419ZM0.578,-0.414L0.575,-0.414L0.575,-0.416L0.577,-0.418L0.578,-0.417L0.579,-0.415L0.578,-0.414ZM0.41,-0.41L0.409,-0.408L0.407,-0.407L0.404,-0.408L0.404,-0.411L0.408,-0.413L0.41,-0.412L0.41,-0.41ZM0.446,-0.399L0.444,-0.397L0.441,-0.398L0.44,-0.401L0.444,-0.405L0.446,-0.405L0.447,-0.402L0.446,-0.399ZM0.599,-0.395L0.591,-0.393L0.591,-0.391L0.59,-0.39L0.587,-0.389L0.582,-0.388L0.586,-0.392L0.59,-0.394L0.594,-0.4L0.6,-0.404L0.599,-0.395ZM0.557,-0.395L0.553,-0.393L0.549,-0.394L0.55,-0.397L0.551,-0.399L0.554,-0.401L0.557,-0.4L0.557,-0.395ZM0.614,-0.388L0.614,-0.391L0.616,-0.389L0.617,-0.386L0.614,-0.388ZM0.477,-0.379L0.474,-0.379L0.471,-0.383L0.469,-0.39L0.475,-0.385L0.478,-0.38L0.477,-0.379ZM0.194,-0.353L0.192,-0.362L0.191,-0.364L0.188,-0.364L0.186,-0.361L0.184,-0.362L0.183,-0.365L0.185,-0.369L0.188,-0.372L0.192,-0.371L0.197,-0.371L0.198,-0.375L0.195,-0.378L0.198,-0.381L0.201,-0.386L0.206,-0.383L0.209,-0.38L0.202,-0.375L0.201,-0.368L0.196,-0.362L0.196,-0.353L0.198,-0.351L0.206,-0.347L0.21,-0.347L0.215,-0.344L0.207,-0.34L0.2,-0.339L0.198,-0.347L0.194,-0.349L0.194,-0.353ZM0.228,-0.372L0.232,-0.379L0.225,-0.382L0.225,-0.385L0.228,-0.386L0.23,-0.385L0.236,-0.383L0.242,-0.386L0.24,-0.38L0.236,-0.375L0.235,-0.372L0.238,-0.367L0.241,-0.366L0.243,-0.363L0.237,-0.363L0.232,-0.367L0.229,-0.37L0.228,-0.372ZM0.644,-0.308L0.665,-0.333L0.667,-0.372L0.667,-0.378L0.661,-0.371L0.634,-0.34L0.582,-0.276L0.557,-0.242L0.531,-0.21L0.518,-0.201L0.513,-0.197L0.514,-0.196L0.516,-0.193L0.521,-0.189L0.528,-0.185L0.538,-0.185L0.546,-0.19L0.594,-0.243L0.618,-0.276L0.644,-0.308ZM0.327,-0.217L0.329,-0.184L0.342,-0.185L0.352,-0.187L0.355,-0.187L0.357,-0.204L0.356,-0.246L0.356,-0.287L0.354,-0.328L0.354,-0.337L0.334,-0.363L0.328,-0.374L0.329,-0.343L0.329,-0.258L0.327,-0.217ZM0.762,-0.315L0.765,-0.319L0.766,-0.318L0.768,-0.318L0.766,-0.313L0.762,-0.309L0.762,-0.315ZM0.211,-0.307L0.214,-0.309L0.216,-0.307L0.214,-0.304L0.215,-0.302L0.215,-0.301L0.217,-0.298L0.216,-0.295L0.215,-0.294L0.213,-0.295L0.211,-0.298L0.211,-0.303L0.212,-0.304L0.211,-0.307ZM0.199,-0.292L0.2,-0.295L0.203,-0.297L0.205,-0.295L0.206,-0.292L0.206,-0.29L0.203,-0.289L0.2,-0.289L0.199,-0.292ZM0.173,-0.276L0.17,-0.277L0.169,-0.278L0.168,-0.278L0.171,-0.28L0.173,-0.279L0.173,-0.276ZM0.176,-0.267L0.177,-0.268L0.179,-0.269L0.181,-0.268L0.181,-0.265L0.179,-0.264L0.177,-0.265L0.176,-0.267ZM0.778,-0.262L0.779,-0.26L0.778,-0.257L0.778,-0.256L0.777,-0.256L0.778,-0.25L0.775,-0.245L0.774,-0.249L0.772,-0.252L0.768,-0.254L0.767,-0.259L0.772,-0.262L0.778,-0.262ZM0.244,-0.241L0.241,-0.239L0.237,-0.237L0.234,-0.235L0.234,-0.239L0.233,-0.243L0.231,-0.247L0.233,-0.25L0.239,-0.25L0.244,-0.246L0.244,-0.241ZM0.81,-0.24L0.811,-0.242L0.812,-0.243L0.814,-0.242L0.814,-0.24L0.813,-0.238L0.811,-0.237L0.81,-0.238L0.81,-0.24ZM0.201,-0.242L0.206,-0.235L0.205,-0.229L0.2,-0.228L0.198,-0.234L0.201,-0.242ZM0.251,-0.229L0.247,-0.233L0.246,-0.238L0.249,-0.24L0.252,-0.24L0.253,-0.234L0.251,-0.229ZM0.791,-0.23L0.792,-0.232L0.795,-0.232L0.797,-0.23L0.797,-0.227L0.798,-0.223L0.801,-0.222L0.807,-0.217L0.81,-0.209L0.809,-0.208L0.807,-0.208L0.803,-0.212L0.801,-0.218L0.797,-0.22L0.792,-0.223L0.79,-0.226L0.791,-0.23ZM0.231,-0.214L0.228,-0.215L0.229,-0.218L0.232,-0.22L0.236,-0.219L0.237,-0.215L0.236,-0.214L0.234,-0.215L0.231,-0.214ZM0.204,-0.219L0.209,-0.215L0.201,-0.215L0.204,-0.219ZM0.184,-0.194L0.182,-0.195L0.181,-0.198L0.179,-0.201L0.181,-0.204L0.183,-0.204L0.185,-0.202L0.186,-0.197L0.184,-0.194ZM0.232,-0.192L0.23,-0.188L0.227,-0.185L0.225,-0.181L0.221,-0.188L0.224,-0.194L0.227,-0.196L0.231,-0.195L0.232,-0.192ZM0.741,-0.175L0.738,-0.175L0.734,-0.179L0.736,-0.181L0.741,-0.181L0.741,-0.175ZM0.218,-0.155L0.215,-0.152L0.214,-0.152L0.213,-0.153L0.213,-0.158L0.216,-0.162L0.213,-0.168L0.211,-0.175L0.205,-0.171L0.198,-0.175L0.204,-0.178L0.211,-0.175L0.214,-0.175L0.219,-0.178L0.223,-0.175L0.224,-0.168L0.218,-0.162L0.218,-0.155ZM0.842,-0.163L0.843,-0.163L0.842,-0.162L0.841,-0.162L0.842,-0.163ZM0.189,-0.145L0.187,-0.148L0.187,-0.151L0.188,-0.152L0.189,-0.151L0.191,-0.148L0.189,-0.145ZM0.226,-0.145L0.223,-0.15L0.227,-0.15L0.233,-0.148L0.236,-0.148L0.238,-0.146L0.237,-0.143L0.233,-0.143L0.226,-0.145ZM0.785,-0.142L0.787,-0.145L0.789,-0.146L0.79,-0.145L0.791,-0.145L0.794,-0.144L0.796,-0.144L0.8,-0.142L0.801,-0.14L0.799,-0.138L0.797,-0.137L0.795,-0.135L0.793,-0.132L0.79,-0.131L0.788,-0.13L0.785,-0.13L0.786,-0.135L0.787,-0.138L0.787,-0.14L0.785,-0.142ZM0.824,-0.137L0.826,-0.138L0.827,-0.137L0.826,-0.136L0.824,-0.135L0.824,-0.136L0.823,-0.137L0.824,-0.137ZM0.214,-0.125L0.213,-0.125L0.21,-0.127L0.209,-0.13L0.212,-0.129L0.215,-0.126L0.214,-0.125ZM0.199,-0.124L0.196,-0.122L0.195,-0.126L0.197,-0.129L0.199,-0.129L0.2,-0.128L0.199,-0.124ZM0.171,-0.117L0.167,-0.121L0.165,-0.126L0.169,-0.127L0.172,-0.125L0.173,-0.121L0.171,-0.117ZM0.441,-0.101L0.436,-0.105L0.431,-0.107L0.416,-0.108L0.415,-0.082L0.418,-0.047L0.417,-0.015L0.416,-0.009L0.416,-0.001L0.412,0.009L0.409,0.018L0.402,0.024L0.396,0.027L0.387,0.029L0.377,0.029L0.343,0.03L0.305,0.027L0.271,0.023L0.24,0.019L0.209,0.024L0.172,0.028L0.135,0.024L0.103,0.02L0.07,0.023L0.072,0.04L0.074,0.046L0.078,0.048L0.091,0.051L0.125,0.053L0.193,0.055L0.227,0.059L0.261,0.055L0.295,0.053L0.329,0.054L0.363,0.059L0.398,0.061L0.428,0.059L0.434,0.057L0.439,0.052L0.442,0.048L0.444,0.04L0.447,-0.058L0.443,-0.09L0.441,-0.101ZM1.031,-0.091L1.029,-0.097L1.025,-0.101L1.016,-0.105L1.006,-0.106L1.005,-0.081L1.006,-0.047L1.005,-0.027L1.006,0.006L1.003,0.015L0.997,0.021L0.987,0.026L0.973,0.029L0.944,0.03L0.926,0.029L0.892,0.026L0.824,0.028L0.756,0.022L0.724,0.023L0.688,0.026L0.661,0.025L0.663,0.039L0.666,0.048L0.676,0.051L0.709,0.056L0.743,0.057L0.778,0.054L0.812,0.052L0.846,0.056L0.88,0.059L0.948,0.057L0.983,0.058L1,0.059L1.014,0.057L1.022,0.053L1.026,0.05L1.029,0.045L1.031,0.038L1.033,0.026L1.034,0.007L1.033,-0.026L1.034,-0.059L1.031,-0.091ZM0.783,-0.099L0.782,-0.097L0.782,-0.095L0.779,-0.093L0.776,-0.093L0.774,-0.092L0.772,-0.093L0.771,-0.095L0.771,-0.097L0.772,-0.099L0.78,-0.101L0.783,-0.099ZM0.72,-0.069L0.718,-0.068L0.709,-0.069L0.708,-0.07L0.712,-0.081L0.713,-0.085L0.711,-0.091L0.715,-0.099L0.716,-0.097L0.718,-0.096L0.716,-0.088L0.717,-0.086L0.717,-0.084L0.716,-0.075L0.717,-0.075L0.719,-0.073L0.721,-0.07L0.72,-0.069ZM0.214,-0.09L0.211,-0.09L0.21,-0.092L0.21,-0.093L0.212,-0.094L0.214,-0.094L0.214,-0.09ZM0.24,-0.084L0.239,-0.083L0.237,-0.082L0.236,-0.083L0.236,-0.085L0.237,-0.086L0.24,-0.086L0.24,-0.084ZM0.213,-0.077L0.211,-0.076L0.21,-0.077L0.21,-0.08L0.212,-0.081L0.213,-0.081L0.213,-0.077ZM0.787,-0.058L0.788,-0.06L0.79,-0.066L0.788,-0.073L0.803,-0.066L0.803,-0.061L0.804,-0.056L0.802,-0.054L0.794,-0.052L0.785,-0.056L0.787,-0.058ZM0.871,-0.06L0.875,-0.06L0.88,-0.058L0.881,-0.053L0.877,-0.05L0.873,-0.053L0.872,-0.055L0.871,-0.056L0.871,-0.06ZM0.843,-0.038L0.848,-0.036L0.851,-0.033L0.851,-0.03L0.848,-0.031L0.846,-0.034L0.838,-0.034L0.843,-0.038Z" style="fill:rgb(32,32,34);fill-rule:nonzero;"/>
        </g>
        <g transform="matrix(800,0,0,800,2055.56,2073.9)">
            <path d="M0.554,-0.003L0.549,-0.004L0.544,-0.006L0.539,-0.011L0.536,-0.016L0.534,-0.023L0.536,-0.073L0.536,-0.099L0.537,-0.125L0.54,-0.134L0.545,-0.14L0.551,-0.143L0.562,-0.145L0.57,-0.145L0.578,-0.148L0.583,-0.154L0.585,-0.159L0.587,-0.165L0.588,-0.17L0.588,-0.175L0.583,-0.188L0.579,-0.2L0.576,-0.206L0.572,-0.211L0.567,-0.215L0.558,-0.217L0.52,-0.215L0.483,-0.212L0.401,-0.218L0.365,-0.217L0.331,-0.217L0.321,-0.213L0.316,-0.203L0.311,-0.189L0.306,-0.176L0.306,-0.169L0.308,-0.163L0.313,-0.156L0.318,-0.151L0.325,-0.149L0.344,-0.149L0.351,-0.147L0.358,-0.143L0.363,-0.135L0.366,-0.126L0.366,-0.099L0.367,-0.073L0.366,-0.047L0.366,-0.022L0.365,-0.012L0.359,-0.005L0.352,-0.001L0.344,-0L0.266,0.002L0.184,0.002L0.101,-0.002L0.024,-0L0.018,-0.001L0.011,-0.004L0.005,-0.01L0.003,-0.021L0.003,-0.05L0.004,-0.079L0,-0.138L0.001,-0.148L0.007,-0.156L0.015,-0.16L0.023,-0.161L0.073,-0.163L0.08,-0.165L0.085,-0.171L0.109,-0.225L0.125,-0.255L0.141,-0.287L0.155,-0.318L0.17,-0.349L0.184,-0.381L0.198,-0.412L0.213,-0.443L0.228,-0.475L0.241,-0.507L0.254,-0.542L0.255,-0.549L0.251,-0.555L0.241,-0.559L0.203,-0.559L0.193,-0.562L0.186,-0.569L0.183,-0.577L0.182,-0.582L0.18,-0.641L0.18,-0.699L0.182,-0.71L0.189,-0.719L0.199,-0.722L0.234,-0.723L0.268,-0.725L0.304,-0.722L0.374,-0.718L0.409,-0.717L0.48,-0.721L0.482,-0.721L0.548,-0.719L0.555,-0.718L0.56,-0.716L0.564,-0.712L0.567,-0.706L0.593,-0.642L0.61,-0.607L0.626,-0.573L0.644,-0.54L0.662,-0.506L0.678,-0.472L0.693,-0.438L0.708,-0.403L0.723,-0.369L0.737,-0.333L0.75,-0.298L0.764,-0.263L0.778,-0.229L0.794,-0.199L0.81,-0.171L0.816,-0.165L0.823,-0.163L0.846,-0.163L0.87,-0.164L0.876,-0.162L0.881,-0.158L0.885,-0.154L0.892,-0.145L0.892,-0.14L0.894,-0.081L0.893,-0.05L0.892,-0.021L0.891,-0.016L0.889,-0.01L0.885,-0.006L0.881,-0.003L0.876,-0.001L0.87,-0L0.794,0.002L0.754,-0.001L0.712,-0.003L0.672,-0.001L0.63,-0L0.592,-0.002L0.554,-0.003ZM0.616,-0.651L0.632,-0.617L0.648,-0.584L0.665,-0.551L0.7,-0.482L0.715,-0.448L0.745,-0.378L0.746,-0.378L0.746,-0.377L0.759,-0.342L0.773,-0.307L0.786,-0.272L0.8,-0.238L0.815,-0.211L0.828,-0.187L0.846,-0.187L0.852,-0.188L0.83,-0.243L0.817,-0.278L0.803,-0.314L0.788,-0.348L0.773,-0.383L0.758,-0.417L0.742,-0.452L0.706,-0.518L0.69,-0.552L0.673,-0.587L0.647,-0.651L0.641,-0.659L0.635,-0.662L0.628,-0.664L0.61,-0.665L0.616,-0.651ZM0.541,-0.615L0.533,-0.614L0.527,-0.614L0.52,-0.617L0.519,-0.616L0.514,-0.616L0.514,-0.614L0.518,-0.61L0.519,-0.61L0.52,-0.609L0.529,-0.61L0.533,-0.61L0.54,-0.609L0.543,-0.611L0.545,-0.613L0.541,-0.615ZM0.434,-0.614L0.431,-0.616L0.428,-0.616L0.428,-0.613L0.437,-0.611L0.441,-0.615L0.437,-0.615L0.434,-0.614ZM0.483,-0.599L0.483,-0.609L0.478,-0.61L0.474,-0.606L0.474,-0.605L0.477,-0.595L0.486,-0.593L0.483,-0.599ZM0.416,-0.587L0.414,-0.589L0.409,-0.591L0.407,-0.587L0.408,-0.583L0.418,-0.583L0.416,-0.587ZM0.507,-0.574L0.505,-0.577L0.502,-0.58L0.5,-0.577L0.499,-0.574L0.5,-0.571L0.503,-0.569L0.505,-0.571L0.507,-0.574ZM0.595,-0.572L0.594,-0.573L0.592,-0.573L0.591,-0.571L0.592,-0.567L0.594,-0.564L0.597,-0.565L0.598,-0.567L0.598,-0.57L0.597,-0.571L0.595,-0.572ZM0.536,-0.548L0.528,-0.548L0.526,-0.549L0.525,-0.547L0.523,-0.546L0.523,-0.544L0.522,-0.541L0.523,-0.54L0.524,-0.538L0.524,-0.534L0.526,-0.535L0.529,-0.537L0.537,-0.545L0.539,-0.546L0.54,-0.548L0.538,-0.549L0.536,-0.548ZM0.485,-0.525L0.489,-0.524L0.492,-0.526L0.489,-0.527L0.485,-0.525ZM0.36,-0.512L0.36,-0.514L0.358,-0.515L0.355,-0.511L0.353,-0.504L0.358,-0.508L0.36,-0.512ZM0.482,-0.37L0.49,-0.372L0.498,-0.379L0.502,-0.388L0.503,-0.395L0.502,-0.401L0.492,-0.426L0.481,-0.452L0.472,-0.476L0.464,-0.501L0.459,-0.508L0.45,-0.51L0.441,-0.51L0.433,-0.508L0.428,-0.501L0.42,-0.477L0.411,-0.452L0.4,-0.427L0.389,-0.404L0.387,-0.396L0.389,-0.387L0.395,-0.379L0.402,-0.374L0.409,-0.373L0.446,-0.372L0.482,-0.37ZM0.291,-0.498L0.294,-0.5L0.295,-0.502L0.294,-0.504L0.291,-0.505L0.287,-0.504L0.286,-0.501L0.287,-0.499L0.291,-0.498ZM0.508,-0.501L0.506,-0.501L0.504,-0.499L0.506,-0.497L0.508,-0.497L0.509,-0.499L0.509,-0.5L0.508,-0.501ZM0.575,-0.494L0.57,-0.494L0.565,-0.495L0.561,-0.499L0.555,-0.5L0.554,-0.499L0.554,-0.498L0.559,-0.493L0.566,-0.491L0.57,-0.492L0.573,-0.489L0.573,-0.486L0.576,-0.485L0.578,-0.487L0.579,-0.489L0.578,-0.493L0.575,-0.494ZM0.604,-0.479L0.602,-0.481L0.599,-0.483L0.598,-0.478L0.602,-0.473L0.602,-0.469L0.604,-0.468L0.609,-0.471L0.611,-0.475L0.609,-0.479L0.604,-0.479ZM0.356,-0.48L0.353,-0.481L0.349,-0.479L0.349,-0.477L0.352,-0.476L0.354,-0.475L0.356,-0.477L0.356,-0.48ZM0.31,-0.473L0.312,-0.473L0.313,-0.475L0.313,-0.478L0.311,-0.48L0.309,-0.478L0.309,-0.475L0.31,-0.473ZM0.441,-0.396L0.454,-0.424L0.46,-0.44L0.446,-0.479L0.442,-0.469L0.434,-0.444L0.421,-0.417L0.413,-0.398L0.441,-0.396ZM0.567,-0.474L0.565,-0.474L0.564,-0.472L0.564,-0.47L0.565,-0.468L0.567,-0.468L0.568,-0.47L0.568,-0.472L0.567,-0.474ZM0.339,-0.458L0.34,-0.462L0.338,-0.464L0.333,-0.461L0.33,-0.455L0.324,-0.455L0.319,-0.452L0.333,-0.448L0.339,-0.458ZM0.287,-0.446L0.29,-0.451L0.291,-0.455L0.288,-0.458L0.284,-0.457L0.282,-0.454L0.28,-0.45L0.282,-0.446L0.287,-0.446ZM0.327,-0.431L0.318,-0.436L0.315,-0.436L0.312,-0.437L0.311,-0.442L0.308,-0.447L0.303,-0.439L0.306,-0.433L0.32,-0.429L0.328,-0.421L0.333,-0.418L0.339,-0.42L0.34,-0.424L0.337,-0.426L0.327,-0.431ZM0.362,-0.444L0.358,-0.446L0.356,-0.445L0.355,-0.442L0.359,-0.44L0.362,-0.441L0.362,-0.444ZM0.637,-0.431L0.637,-0.426L0.64,-0.426L0.641,-0.431L0.639,-0.436L0.637,-0.431ZM0.325,-0.401L0.327,-0.403L0.328,-0.407L0.325,-0.411L0.323,-0.411L0.321,-0.41L0.32,-0.406L0.323,-0.402L0.325,-0.401ZM0.264,-0.394L0.266,-0.396L0.267,-0.401L0.264,-0.405L0.261,-0.405L0.259,-0.402L0.258,-0.398L0.261,-0.395L0.264,-0.394ZM0.251,-0.389L0.253,-0.391L0.253,-0.393L0.254,-0.395L0.251,-0.394L0.248,-0.392L0.247,-0.391L0.248,-0.389L0.251,-0.389ZM0.334,-0.394L0.33,-0.389L0.323,-0.391L0.312,-0.393L0.317,-0.383L0.319,-0.373L0.316,-0.371L0.317,-0.367L0.321,-0.367L0.322,-0.371L0.326,-0.374L0.329,-0.378L0.334,-0.378L0.338,-0.381L0.34,-0.387L0.338,-0.393L0.334,-0.394ZM0.22,-0.358L0.226,-0.367L0.235,-0.373L0.239,-0.375L0.251,-0.369L0.256,-0.359L0.264,-0.352L0.266,-0.339L0.272,-0.341L0.276,-0.344L0.279,-0.347L0.276,-0.355L0.273,-0.36L0.267,-0.358L0.262,-0.362L0.266,-0.369L0.27,-0.375L0.268,-0.382L0.265,-0.387L0.259,-0.388L0.257,-0.384L0.259,-0.38L0.258,-0.376L0.254,-0.375L0.247,-0.377L0.24,-0.378L0.234,-0.381L0.23,-0.376L0.224,-0.377L0.218,-0.379L0.216,-0.372L0.213,-0.366L0.212,-0.352L0.22,-0.358ZM0.308,-0.371L0.311,-0.374L0.311,-0.377L0.308,-0.378L0.305,-0.38L0.303,-0.379L0.302,-0.375L0.305,-0.371L0.308,-0.371ZM0.285,-0.349L0.285,-0.336L0.286,-0.331L0.291,-0.329L0.294,-0.33L0.296,-0.333L0.295,-0.337L0.292,-0.338L0.289,-0.342L0.29,-0.347L0.289,-0.356L0.282,-0.364L0.281,-0.363L0.279,-0.362L0.281,-0.354L0.285,-0.349ZM0.293,-0.357L0.292,-0.355L0.296,-0.352L0.302,-0.353L0.304,-0.352L0.306,-0.352L0.309,-0.348L0.314,-0.35L0.313,-0.355L0.308,-0.356L0.306,-0.358L0.301,-0.361L0.295,-0.359L0.293,-0.357ZM0.24,-0.347L0.246,-0.352L0.243,-0.359L0.23,-0.359L0.222,-0.348L0.223,-0.34L0.231,-0.341L0.233,-0.342L0.235,-0.344L0.24,-0.347ZM0.32,-0.333L0.316,-0.341L0.312,-0.344L0.309,-0.34L0.303,-0.338L0.301,-0.332L0.303,-0.326L0.308,-0.326L0.312,-0.324L0.315,-0.322L0.318,-0.319L0.321,-0.319L0.322,-0.321L0.321,-0.325L0.32,-0.333ZM0.266,-0.333L0.266,-0.331L0.267,-0.33L0.273,-0.33L0.276,-0.335L0.271,-0.336L0.266,-0.333ZM0.233,-0.316L0.232,-0.32L0.231,-0.327L0.229,-0.334L0.228,-0.334L0.227,-0.333L0.224,-0.322L0.224,-0.318L0.223,-0.315L0.226,-0.313L0.232,-0.313L0.233,-0.316ZM0.237,-0.315L0.243,-0.314L0.244,-0.317L0.246,-0.319L0.25,-0.327L0.253,-0.33L0.257,-0.332L0.244,-0.334L0.236,-0.324L0.235,-0.323L0.235,-0.322L0.237,-0.315ZM0.283,-0.319L0.281,-0.313L0.282,-0.311L0.285,-0.311L0.286,-0.313L0.287,-0.316L0.286,-0.319L0.283,-0.319ZM0.312,-0.316L0.31,-0.313L0.306,-0.315L0.301,-0.317L0.297,-0.317L0.293,-0.316L0.295,-0.312L0.298,-0.308L0.303,-0.3L0.307,-0.303L0.309,-0.307L0.314,-0.311L0.313,-0.319L0.312,-0.316ZM0.251,-0.307L0.261,-0.311L0.251,-0.313L0.25,-0.31L0.249,-0.304L0.247,-0.295L0.254,-0.298L0.251,-0.307ZM0.287,-0.295L0.288,-0.293L0.29,-0.293L0.292,-0.298L0.294,-0.305L0.288,-0.301L0.287,-0.295ZM0.269,-0.278L0.269,-0.282L0.277,-0.289L0.275,-0.302L0.27,-0.293L0.266,-0.283L0.261,-0.278L0.26,-0.27L0.265,-0.274L0.269,-0.278ZM0.241,-0.288L0.236,-0.293L0.232,-0.299L0.232,-0.282L0.234,-0.276L0.236,-0.271L0.236,-0.269L0.243,-0.265L0.247,-0.267L0.251,-0.268L0.253,-0.274L0.248,-0.279L0.241,-0.288ZM0.226,-0.294L0.224,-0.297L0.22,-0.297L0.217,-0.293L0.216,-0.289L0.217,-0.285L0.222,-0.286L0.226,-0.29L0.226,-0.294ZM0.202,-0.296L0.2,-0.294L0.202,-0.286L0.204,-0.287L0.207,-0.289L0.207,-0.294L0.204,-0.296L0.202,-0.296ZM0.279,-0.277L0.278,-0.274L0.277,-0.272L0.282,-0.268L0.287,-0.27L0.287,-0.273L0.284,-0.275L0.279,-0.277ZM0.631,-0.273L0.63,-0.273L0.629,-0.269L0.632,-0.265L0.633,-0.269L0.633,-0.274L0.631,-0.273ZM0.229,-0.268L0.226,-0.268L0.226,-0.266L0.227,-0.264L0.231,-0.264L0.229,-0.268ZM0.266,-0.262L0.265,-0.259L0.266,-0.256L0.272,-0.254L0.278,-0.256L0.273,-0.262L0.266,-0.262ZM0.246,-0.257L0.243,-0.257L0.242,-0.256L0.243,-0.253L0.246,-0.251L0.248,-0.253L0.248,-0.256L0.246,-0.257ZM0.695,-0.234L0.697,-0.234L0.697,-0.239L0.695,-0.239L0.694,-0.237L0.694,-0.236L0.695,-0.234ZM0.23,-0.232L0.228,-0.23L0.228,-0.229L0.229,-0.227L0.231,-0.226L0.233,-0.228L0.235,-0.231L0.241,-0.238L0.232,-0.235L0.23,-0.232ZM0.668,-0.23L0.665,-0.233L0.665,-0.234L0.664,-0.237L0.662,-0.238L0.658,-0.236L0.656,-0.231L0.659,-0.228L0.663,-0.229L0.667,-0.225L0.668,-0.23ZM0.696,-0.219L0.693,-0.218L0.691,-0.22L0.69,-0.223L0.687,-0.224L0.685,-0.223L0.685,-0.22L0.686,-0.217L0.689,-0.216L0.697,-0.216L0.701,-0.213L0.706,-0.211L0.707,-0.212L0.707,-0.213L0.702,-0.218L0.696,-0.219ZM0.226,-0.216L0.224,-0.215L0.225,-0.212L0.225,-0.21L0.227,-0.21L0.229,-0.212L0.229,-0.214L0.227,-0.217L0.226,-0.216ZM0.531,-0.159L0.542,-0.166L0.548,-0.167L0.563,-0.169L0.564,-0.171L0.561,-0.18L0.557,-0.191L0.555,-0.193L0.522,-0.191L0.48,-0.188L0.4,-0.194L0.366,-0.193L0.338,-0.193L0.334,-0.181L0.331,-0.173L0.345,-0.173L0.361,-0.17L0.37,-0.162L0.445,-0.162L0.48,-0.163L0.521,-0.16L0.531,-0.159ZM0.672,-0.161L0.67,-0.165L0.667,-0.164L0.666,-0.163L0.665,-0.161L0.668,-0.16L0.67,-0.16L0.672,-0.161ZM0.728,-0.154L0.722,-0.155L0.72,-0.156L0.718,-0.156L0.718,-0.153L0.721,-0.152L0.722,-0.149L0.723,-0.147L0.723,-0.143L0.727,-0.142L0.731,-0.143L0.732,-0.147L0.734,-0.149L0.733,-0.152L0.728,-0.154ZM0.767,-0.155L0.766,-0.154L0.767,-0.154L0.767,-0.155ZM0.753,-0.136L0.752,-0.136L0.752,-0.135L0.753,-0.133L0.757,-0.133L0.754,-0.135L0.753,-0.136ZM0.679,-0.113L0.677,-0.117L0.677,-0.118L0.676,-0.118L0.675,-0.122L0.672,-0.122L0.671,-0.119L0.674,-0.117L0.674,-0.11L0.676,-0.108L0.677,-0.105L0.679,-0.105L0.68,-0.107L0.679,-0.11L0.679,-0.113ZM0.714,-0.107L0.716,-0.108L0.719,-0.108L0.719,-0.11L0.72,-0.111L0.718,-0.114L0.716,-0.114L0.715,-0.115L0.713,-0.115L0.711,-0.111L0.711,-0.11L0.713,-0.107L0.714,-0.107ZM0.946,-0.025L0.944,-0.085L0.944,-0.09L0.937,-0.099L0.933,-0.103L0.928,-0.107L0.922,-0.109L0.917,-0.108L0.917,-0.049L0.916,-0.02L0.915,-0.006L0.913,0.002L0.907,0.01L0.903,0.014L0.897,0.018L0.891,0.021L0.883,0.022L0.871,0.024L0.833,0.025L0.752,0.023L0.712,0.021L0.672,0.023L0.615,0.023L0.614,0.032L0.616,0.039L0.62,0.044L0.626,0.049L0.634,0.052L0.672,0.053L0.71,0.055L0.752,0.054L0.792,0.052L0.834,0.054L0.874,0.057L0.913,0.056L0.93,0.054L0.937,0.05L0.942,0.043L0.944,0.034L0.946,-0.025ZM0.421,-0.079L0.42,-0.084L0.414,-0.092L0.406,-0.1L0.399,-0.102L0.39,-0.105L0.39,-0.1L0.391,-0.073L0.39,-0.047L0.39,-0.021L0.389,-0.005L0.388,0.004L0.383,0.014L0.374,0.02L0.366,0.022L0.354,0.023L0.345,0.024L0.266,0.026L0.182,0.026L0.101,0.022L0.083,0.022L0.083,0.034L0.084,0.043L0.088,0.051L0.096,0.054L0.104,0.055L0.181,0.053L0.264,0.057L0.321,0.057L0.399,0.055L0.408,0.052L0.414,0.049L0.419,0.042L0.421,0.033L0.421,0.008L0.422,-0.018L0.421,-0.044L0.421,-0.079ZM0.717,-0.082L0.714,-0.078L0.713,-0.076L0.712,-0.075L0.715,-0.071L0.719,-0.072L0.72,-0.072L0.72,-0.073L0.724,-0.081L0.718,-0.088L0.717,-0.082ZM0.773,-0.054L0.77,-0.056L0.769,-0.053L0.769,-0.05L0.772,-0.047L0.775,-0.048L0.776,-0.051L0.773,-0.054ZM0.745,-0.045L0.742,-0.048L0.737,-0.048L0.74,-0.046L0.742,-0.045L0.743,-0.041L0.745,-0.04L0.746,-0.042L0.745,-0.045Z" style="fill:rgb(32,32,34);fill-rule:nonzero;"/>
        </g>
        <g transform="matrix(800,0,0,800,2796.36,2073.9)">
            <path d="M0.155,-0.006L0.173,-0L0.211,0.011L0.232,0.014L0.251,0.015L0.291,0.014L0.312,0.013L0.331,0.014L0.368,0.015L0.386,0.013L0.424,0.006L0.459,-0.004L0.494,-0.018L0.527,-0.035L0.559,-0.055L0.586,-0.08L0.597,-0.095L0.605,-0.111L0.619,-0.146L0.626,-0.163L0.633,-0.199L0.634,-0.219L0.633,-0.237L0.627,-0.271L0.621,-0.287L0.607,-0.319L0.588,-0.346L0.577,-0.359L0.552,-0.382L0.537,-0.392L0.521,-0.401L0.49,-0.415L0.457,-0.426L0.422,-0.434L0.371,-0.443L0.314,-0.448L0.276,-0.45L0.26,-0.453L0.24,-0.461L0.225,-0.472L0.214,-0.489L0.211,-0.508L0.214,-0.525L0.223,-0.538L0.236,-0.548L0.251,-0.556L0.266,-0.562L0.283,-0.565L0.314,-0.566L0.336,-0.566L0.376,-0.562L0.395,-0.559L0.399,-0.557L0.404,-0.554L0.407,-0.551L0.408,-0.546L0.408,-0.511L0.411,-0.497L0.413,-0.49L0.415,-0.485L0.418,-0.483L0.425,-0.481L0.447,-0.478L0.477,-0.48L0.499,-0.481L0.552,-0.481L0.574,-0.482L0.579,-0.482L0.582,-0.483L0.583,-0.484L0.588,-0.513L0.591,-0.545L0.591,-0.568L0.59,-0.593L0.587,-0.642L0.585,-0.648L0.566,-0.663L0.537,-0.683L0.521,-0.692L0.505,-0.7L0.455,-0.715L0.42,-0.723L0.403,-0.726L0.368,-0.73L0.351,-0.733L0.333,-0.735L0.296,-0.736L0.279,-0.735L0.243,-0.731L0.208,-0.722L0.192,-0.716L0.175,-0.71L0.158,-0.705L0.126,-0.691L0.095,-0.672L0.067,-0.651L0.054,-0.639L0.044,-0.625L0.029,-0.593L0.016,-0.56L0.01,-0.544L0.007,-0.526L0.005,-0.508L0.006,-0.489L0.013,-0.454L0.024,-0.421L0.039,-0.39L0.048,-0.375L0.06,-0.362L0.073,-0.35L0.086,-0.34L0.116,-0.322L0.15,-0.308L0.183,-0.298L0.217,-0.291L0.236,-0.288L0.253,-0.286L0.306,-0.286L0.328,-0.281L0.363,-0.272L0.378,-0.267L0.399,-0.259L0.414,-0.25L0.422,-0.238L0.426,-0.223L0.422,-0.205L0.414,-0.189L0.401,-0.176L0.384,-0.167L0.367,-0.164L0.349,-0.162L0.329,-0.163L0.281,-0.163L0.253,-0.165L0.238,-0.167L0.21,-0.173L0.198,-0.176L0.194,-0.178L0.189,-0.181L0.186,-0.186L0.185,-0.19L0.187,-0.218L0.187,-0.229L0.184,-0.246L0.182,-0.252L0.18,-0.257L0.177,-0.261L0.171,-0.263L0.151,-0.265L0.138,-0.263L0.124,-0.261L0.104,-0.26L0.083,-0.26L0.068,-0.262L0.054,-0.263L0.033,-0.263L0.026,-0.26L0.017,-0.252L0.009,-0.242L0.006,-0.235L0.007,-0.205L0.009,-0.156L0.01,-0.113L0.011,-0.091L0.012,-0.084L0.014,-0.079L0.031,-0.066L0.079,-0.032L0.097,-0.024L0.136,-0.011L0.155,-0.006ZM0.327,-0.688L0.33,-0.687L0.333,-0.685L0.336,-0.685L0.339,-0.686L0.335,-0.682L0.331,-0.683L0.327,-0.685L0.327,-0.688ZM0.409,-0.68L0.413,-0.681L0.416,-0.678L0.417,-0.678L0.418,-0.677L0.422,-0.679L0.425,-0.676L0.422,-0.673L0.419,-0.674L0.412,-0.674L0.409,-0.677L0.408,-0.679L0.409,-0.68ZM0.37,-0.675L0.374,-0.678L0.378,-0.676L0.378,-0.667L0.38,-0.661L0.371,-0.664L0.37,-0.673L0.37,-0.675ZM0.308,-0.665L0.312,-0.663L0.314,-0.661L0.315,-0.658L0.311,-0.657L0.307,-0.658L0.305,-0.662L0.308,-0.665ZM0.474,-0.656L0.483,-0.66L0.484,-0.658L0.484,-0.656L0.482,-0.654L0.477,-0.653L0.474,-0.654L0.474,-0.656ZM0.392,-0.645L0.394,-0.647L0.397,-0.645L0.398,-0.641L0.397,-0.639L0.395,-0.638L0.392,-0.639L0.391,-0.643L0.392,-0.645ZM0.463,-0.615L0.464,-0.617L0.467,-0.617L0.467,-0.615L0.466,-0.613L0.464,-0.613L0.463,-0.614L0.463,-0.615ZM0.43,-0.614L0.43,-0.612L0.428,-0.611L0.424,-0.606L0.419,-0.603L0.415,-0.603L0.414,-0.606L0.411,-0.609L0.413,-0.614L0.416,-0.616L0.419,-0.615L0.422,-0.615L0.425,-0.614L0.428,-0.616L0.43,-0.614ZM0.582,-0.459L0.575,-0.458L0.554,-0.457L0.537,-0.456L0.521,-0.457L0.479,-0.456L0.464,-0.455L0.466,-0.448L0.499,-0.437L0.515,-0.433L0.526,-0.428L0.531,-0.428L0.553,-0.429L0.605,-0.429L0.633,-0.432L0.634,-0.437L0.64,-0.457L0.642,-0.473L0.643,-0.49L0.643,-0.513L0.642,-0.537L0.64,-0.569L0.639,-0.593L0.632,-0.597L0.621,-0.608L0.613,-0.614L0.613,-0.611L0.614,-0.593L0.615,-0.569L0.615,-0.544L0.614,-0.526L0.61,-0.488L0.609,-0.48L0.605,-0.466L0.599,-0.462L0.593,-0.46L0.585,-0.459L0.582,-0.459ZM0.377,-0.596L0.374,-0.597L0.377,-0.599L0.381,-0.598L0.377,-0.596ZM0.46,-0.585L0.461,-0.587L0.465,-0.587L0.466,-0.586L0.468,-0.585L0.477,-0.585L0.478,-0.584L0.48,-0.584L0.481,-0.58L0.48,-0.578L0.478,-0.577L0.475,-0.578L0.475,-0.58L0.472,-0.583L0.471,-0.582L0.463,-0.582L0.459,-0.584L0.46,-0.585ZM0.5,-0.575L0.504,-0.571L0.509,-0.57L0.511,-0.567L0.509,-0.563L0.505,-0.56L0.502,-0.561L0.502,-0.565L0.499,-0.57L0.5,-0.575ZM0.47,-0.562L0.469,-0.561L0.467,-0.561L0.467,-0.566L0.469,-0.566L0.47,-0.564L0.47,-0.562ZM0.354,-0.541L0.335,-0.542L0.3,-0.542L0.286,-0.541L0.272,-0.538L0.26,-0.534L0.249,-0.528L0.242,-0.522L0.237,-0.515L0.236,-0.508L0.238,-0.497L0.243,-0.49L0.252,-0.482L0.254,-0.488L0.258,-0.495L0.266,-0.501L0.277,-0.507L0.289,-0.511L0.302,-0.514L0.317,-0.515L0.351,-0.515L0.37,-0.514L0.384,-0.512L0.384,-0.536L0.372,-0.539L0.354,-0.541ZM0.535,-0.525L0.537,-0.53L0.539,-0.525L0.538,-0.521L0.537,-0.521L0.535,-0.52L0.535,-0.525ZM0.104,-0.509L0.1,-0.505L0.1,-0.511L0.102,-0.513L0.103,-0.515L0.104,-0.515L0.105,-0.514L0.104,-0.509ZM0.124,-0.451L0.122,-0.454L0.12,-0.456L0.116,-0.456L0.114,-0.46L0.116,-0.464L0.12,-0.465L0.122,-0.464L0.122,-0.46L0.123,-0.458L0.125,-0.456L0.124,-0.451ZM0.151,-0.462L0.152,-0.463L0.154,-0.463L0.154,-0.46L0.153,-0.459L0.152,-0.459L0.151,-0.46L0.151,-0.462ZM0.161,-0.44L0.159,-0.441L0.157,-0.441L0.153,-0.443L0.145,-0.443L0.142,-0.444L0.141,-0.446L0.142,-0.449L0.143,-0.45L0.145,-0.449L0.146,-0.449L0.147,-0.447L0.149,-0.445L0.152,-0.446L0.158,-0.446L0.162,-0.442L0.161,-0.44ZM0.225,-0.43L0.224,-0.429L0.222,-0.429L0.222,-0.431L0.223,-0.432L0.224,-0.432L0.225,-0.431L0.225,-0.43ZM0.231,-0.407L0.234,-0.407L0.231,-0.405L0.23,-0.406L0.229,-0.406L0.231,-0.407ZM0.202,-0.395L0.2,-0.394L0.199,-0.393L0.197,-0.394L0.196,-0.396L0.194,-0.396L0.192,-0.398L0.19,-0.397L0.189,-0.397L0.188,-0.399L0.189,-0.401L0.191,-0.401L0.193,-0.403L0.195,-0.404L0.196,-0.404L0.198,-0.405L0.203,-0.405L0.202,-0.402L0.204,-0.398L0.202,-0.395ZM0.394,-0.358L0.39,-0.353L0.392,-0.348L0.387,-0.345L0.381,-0.342L0.375,-0.348L0.374,-0.353L0.385,-0.355L0.391,-0.363L0.399,-0.368L0.402,-0.374L0.404,-0.379L0.404,-0.381L0.403,-0.383L0.399,-0.387L0.395,-0.392L0.39,-0.395L0.385,-0.399L0.38,-0.404L0.393,-0.401L0.397,-0.401L0.407,-0.398L0.405,-0.387L0.409,-0.383L0.407,-0.379L0.406,-0.372L0.404,-0.366L0.405,-0.362L0.408,-0.362L0.412,-0.364L0.415,-0.362L0.415,-0.357L0.405,-0.351L0.4,-0.355L0.394,-0.358ZM0.325,-0.401L0.327,-0.4L0.327,-0.397L0.326,-0.394L0.323,-0.394L0.321,-0.395L0.319,-0.397L0.325,-0.401ZM0.376,-0.394L0.378,-0.394L0.386,-0.389L0.387,-0.388L0.388,-0.388L0.39,-0.387L0.391,-0.386L0.39,-0.375L0.385,-0.372L0.378,-0.379L0.374,-0.385L0.372,-0.386L0.37,-0.389L0.367,-0.392L0.376,-0.394ZM0.346,-0.386L0.349,-0.386L0.362,-0.388L0.362,-0.386L0.363,-0.386L0.36,-0.384L0.357,-0.383L0.352,-0.379L0.35,-0.377L0.347,-0.378L0.346,-0.38L0.345,-0.383L0.346,-0.386ZM0.143,-0.381L0.137,-0.381L0.137,-0.385L0.139,-0.387L0.141,-0.386L0.142,-0.385L0.143,-0.383L0.143,-0.381ZM0.333,-0.38L0.33,-0.378L0.327,-0.377L0.323,-0.38L0.321,-0.384L0.325,-0.386L0.327,-0.386L0.331,-0.384L0.333,-0.38ZM0.355,-0.368L0.35,-0.368L0.349,-0.374L0.354,-0.377L0.355,-0.377L0.356,-0.378L0.36,-0.376L0.361,-0.375L0.362,-0.375L0.368,-0.373L0.368,-0.361L0.367,-0.363L0.362,-0.366L0.355,-0.368ZM0.31,-0.357L0.312,-0.364L0.322,-0.37L0.335,-0.374L0.328,-0.364L0.322,-0.356L0.319,-0.351L0.314,-0.351L0.31,-0.357ZM0.306,-0.371L0.307,-0.372L0.309,-0.373L0.309,-0.37L0.306,-0.367L0.306,-0.371ZM0.416,-0.369L0.416,-0.372L0.419,-0.372L0.42,-0.37L0.422,-0.367L0.42,-0.367L0.416,-0.369ZM0.214,-0.362L0.212,-0.365L0.211,-0.366L0.21,-0.368L0.212,-0.37L0.214,-0.371L0.216,-0.37L0.217,-0.369L0.218,-0.366L0.214,-0.362ZM0.266,-0.362L0.265,-0.36L0.262,-0.36L0.261,-0.361L0.26,-0.363L0.262,-0.363L0.265,-0.364L0.266,-0.363L0.266,-0.362ZM0.293,-0.347L0.289,-0.349L0.289,-0.35L0.287,-0.352L0.287,-0.353L0.279,-0.357L0.275,-0.36L0.275,-0.362L0.277,-0.363L0.283,-0.361L0.287,-0.353L0.287,-0.354L0.292,-0.354L0.294,-0.353L0.295,-0.35L0.293,-0.347ZM0.421,-0.358L0.421,-0.361L0.424,-0.363L0.427,-0.363L0.43,-0.361L0.43,-0.358L0.426,-0.356L0.422,-0.356L0.421,-0.358ZM0.351,-0.361L0.351,-0.352L0.349,-0.356L0.346,-0.36L0.34,-0.356L0.335,-0.361L0.351,-0.361ZM0.303,-0.351L0.3,-0.35L0.298,-0.352L0.299,-0.355L0.302,-0.356L0.303,-0.355L0.304,-0.353L0.303,-0.351ZM0.367,-0.351L0.369,-0.353L0.37,-0.351L0.371,-0.35L0.371,-0.349L0.37,-0.344L0.367,-0.347L0.367,-0.351ZM0.235,-0.334L0.23,-0.335L0.23,-0.344L0.228,-0.349L0.232,-0.348L0.237,-0.346L0.239,-0.338L0.235,-0.334ZM0.195,-0.336L0.194,-0.335L0.192,-0.335L0.188,-0.337L0.186,-0.339L0.184,-0.34L0.183,-0.341L0.178,-0.341L0.175,-0.344L0.179,-0.346L0.183,-0.343L0.186,-0.343L0.188,-0.342L0.191,-0.342L0.193,-0.34L0.194,-0.338L0.195,-0.338L0.195,-0.336ZM0.329,-0.339L0.327,-0.338L0.326,-0.338L0.322,-0.34L0.317,-0.344L0.325,-0.344L0.33,-0.341L0.338,-0.341L0.347,-0.338L0.337,-0.333L0.329,-0.339ZM0.395,-0.34L0.389,-0.334L0.381,-0.332L0.376,-0.333L0.373,-0.331L0.372,-0.327L0.369,-0.326L0.367,-0.328L0.366,-0.331L0.367,-0.335L0.371,-0.336L0.377,-0.336L0.382,-0.337L0.387,-0.341L0.393,-0.343L0.395,-0.341L0.395,-0.34ZM0.309,-0.325L0.306,-0.33L0.307,-0.336L0.311,-0.336L0.313,-0.33L0.309,-0.325ZM0.359,-0.336L0.359,-0.333L0.358,-0.332L0.356,-0.332L0.356,-0.335L0.357,-0.336L0.359,-0.336ZM0.47,-0.333L0.474,-0.333L0.476,-0.331L0.477,-0.329L0.478,-0.328L0.478,-0.323L0.476,-0.323L0.474,-0.322L0.474,-0.323L0.473,-0.323L0.471,-0.325L0.469,-0.329L0.47,-0.333ZM0.277,-0.327L0.275,-0.327L0.273,-0.329L0.27,-0.328L0.267,-0.328L0.271,-0.332L0.275,-0.331L0.277,-0.329L0.277,-0.327ZM0.391,-0.319L0.389,-0.317L0.388,-0.312L0.384,-0.311L0.382,-0.316L0.386,-0.319L0.386,-0.322L0.385,-0.327L0.388,-0.331L0.39,-0.33L0.391,-0.329L0.393,-0.324L0.391,-0.319ZM0.326,-0.324L0.326,-0.321L0.323,-0.32L0.32,-0.324L0.322,-0.329L0.327,-0.328L0.326,-0.324ZM0.343,-0.323L0.343,-0.324L0.345,-0.327L0.35,-0.326L0.352,-0.324L0.353,-0.324L0.353,-0.322L0.348,-0.322L0.343,-0.323ZM0.352,-0.31L0.352,-0.314L0.354,-0.321L0.356,-0.325L0.357,-0.326L0.357,-0.322L0.356,-0.321L0.355,-0.316L0.353,-0.313L0.357,-0.311L0.354,-0.31L0.352,-0.31ZM0.409,-0.32L0.408,-0.318L0.407,-0.315L0.405,-0.315L0.402,-0.318L0.402,-0.321L0.405,-0.323L0.408,-0.323L0.409,-0.32ZM0.376,-0.309L0.37,-0.305L0.362,-0.304L0.359,-0.302L0.357,-0.303L0.357,-0.307L0.36,-0.309L0.362,-0.312L0.363,-0.315L0.363,-0.32L0.368,-0.322L0.373,-0.32L0.375,-0.315L0.379,-0.312L0.376,-0.309ZM0.444,-0.306L0.447,-0.311L0.451,-0.317L0.457,-0.317L0.46,-0.314L0.461,-0.312L0.462,-0.311L0.46,-0.31L0.457,-0.31L0.452,-0.311L0.451,-0.308L0.45,-0.306L0.435,-0.293L0.432,-0.291L0.43,-0.293L0.43,-0.299L0.434,-0.302L0.444,-0.306ZM0.419,-0.314L0.419,-0.312L0.418,-0.309L0.417,-0.307L0.416,-0.304L0.415,-0.302L0.414,-0.301L0.415,-0.299L0.414,-0.297L0.41,-0.293L0.409,-0.293L0.409,-0.295L0.408,-0.295L0.409,-0.3L0.405,-0.302L0.402,-0.305L0.399,-0.306L0.399,-0.309L0.402,-0.311L0.404,-0.308L0.413,-0.311L0.417,-0.313L0.42,-0.316L0.419,-0.314ZM0.424,-0.305L0.422,-0.305L0.422,-0.307L0.424,-0.308L0.426,-0.31L0.429,-0.31L0.429,-0.308L0.428,-0.307L0.428,-0.306L0.426,-0.306L0.424,-0.305ZM0.455,-0.284L0.453,-0.288L0.452,-0.292L0.462,-0.3L0.461,-0.297L0.461,-0.295L0.46,-0.293L0.458,-0.291L0.46,-0.286L0.459,-0.281L0.457,-0.281L0.455,-0.284ZM0.51,-0.295L0.512,-0.297L0.514,-0.297L0.515,-0.294L0.514,-0.291L0.512,-0.29L0.51,-0.29L0.509,-0.292L0.51,-0.295ZM0.481,-0.295L0.484,-0.295L0.486,-0.294L0.486,-0.292L0.485,-0.291L0.483,-0.291L0.481,-0.292L0.48,-0.294L0.481,-0.295ZM0.675,-0.213L0.673,-0.232L0.669,-0.249L0.668,-0.255L0.654,-0.277L0.647,-0.287L0.65,-0.276L0.654,-0.259L0.656,-0.24L0.657,-0.22L0.656,-0.198L0.653,-0.175L0.649,-0.156L0.643,-0.138L0.636,-0.119L0.628,-0.102L0.618,-0.084L0.605,-0.065L0.589,-0.049L0.573,-0.036L0.557,-0.025L0.539,-0.014L0.522,-0.005L0.504,0.004L0.487,0.011L0.467,0.018L0.449,0.025L0.431,0.03L0.409,0.035L0.388,0.038L0.368,0.04L0.35,0.039L0.312,0.038L0.272,0.04L0.252,0.04L0.231,0.039L0.205,0.035L0.186,0.03L0.15,0.021L0.108,0.005L0.107,0.005L0.118,0.013L0.135,0.024L0.153,0.032L0.172,0.039L0.191,0.045L0.21,0.05L0.248,0.062L0.267,0.067L0.291,0.067L0.332,0.065L0.369,0.066L0.387,0.067L0.407,0.065L0.429,0.062L0.45,0.057L0.468,0.052L0.486,0.046L0.506,0.039L0.523,0.032L0.542,0.023L0.558,0.013L0.576,0.002L0.592,-0.009L0.608,-0.022L0.624,-0.038L0.638,-0.056L0.647,-0.074L0.655,-0.092L0.662,-0.111L0.668,-0.129L0.672,-0.148L0.675,-0.17L0.676,-0.193L0.675,-0.213ZM0.436,-0.277L0.434,-0.276L0.432,-0.276L0.43,-0.277L0.43,-0.278L0.431,-0.279L0.433,-0.28L0.435,-0.28L0.436,-0.279L0.436,-0.277ZM0.239,-0.242L0.256,-0.238L0.291,-0.232L0.308,-0.23L0.362,-0.23L0.383,-0.226L0.401,-0.222L0.4,-0.228L0.397,-0.232L0.388,-0.238L0.37,-0.245L0.356,-0.249L0.34,-0.254L0.323,-0.258L0.303,-0.261L0.253,-0.261L0.233,-0.263L0.213,-0.266L0.202,-0.269L0.205,-0.26L0.207,-0.252L0.239,-0.242ZM0.463,-0.264L0.462,-0.262L0.46,-0.261L0.458,-0.262L0.458,-0.264L0.459,-0.266L0.462,-0.267L0.463,-0.266L0.463,-0.264ZM0.48,-0.24L0.479,-0.241L0.477,-0.245L0.477,-0.25L0.481,-0.245L0.482,-0.241L0.48,-0.24ZM0.489,-0.214L0.491,-0.216L0.494,-0.216L0.493,-0.213L0.491,-0.212L0.49,-0.211L0.489,-0.212L0.489,-0.214ZM0.501,-0.178L0.502,-0.176L0.501,-0.174L0.5,-0.174L0.5,-0.169L0.496,-0.166L0.496,-0.171L0.493,-0.174L0.493,-0.177L0.497,-0.179L0.501,-0.178ZM0.522,-0.154L0.523,-0.155L0.525,-0.156L0.526,-0.154L0.525,-0.153L0.524,-0.151L0.522,-0.151L0.521,-0.152L0.522,-0.154ZM0.506,-0.151L0.508,-0.151L0.509,-0.15L0.509,-0.148L0.508,-0.146L0.507,-0.143L0.51,-0.141L0.51,-0.14L0.511,-0.138L0.512,-0.135L0.51,-0.128L0.509,-0.127L0.508,-0.127L0.507,-0.13L0.507,-0.132L0.508,-0.137L0.506,-0.141L0.503,-0.144L0.502,-0.148L0.504,-0.15L0.506,-0.151ZM0.448,-0.144L0.45,-0.144L0.453,-0.141L0.452,-0.14L0.452,-0.139L0.451,-0.139L0.449,-0.14L0.449,-0.143L0.448,-0.144ZM0.417,-0.141L0.418,-0.141L0.418,-0.142L0.42,-0.141L0.421,-0.14L0.421,-0.141L0.422,-0.14L0.422,-0.141L0.423,-0.141L0.423,-0.142L0.424,-0.142L0.425,-0.141L0.425,-0.138L0.423,-0.138L0.423,-0.137L0.421,-0.137L0.42,-0.136L0.418,-0.138L0.417,-0.14L0.417,-0.141ZM0.356,-0.136L0.357,-0.135L0.359,-0.134L0.365,-0.136L0.362,-0.132L0.357,-0.132L0.354,-0.133L0.353,-0.136L0.356,-0.136ZM0.393,-0.13L0.394,-0.131L0.395,-0.133L0.399,-0.132L0.399,-0.129L0.4,-0.123L0.401,-0.121L0.403,-0.119L0.399,-0.12L0.395,-0.12L0.393,-0.128L0.393,-0.13ZM0.337,-0.113L0.339,-0.112L0.341,-0.112L0.343,-0.111L0.344,-0.111L0.345,-0.109L0.346,-0.108L0.342,-0.107L0.337,-0.107L0.335,-0.11L0.337,-0.113ZM0.415,-0.106L0.415,-0.108L0.416,-0.109L0.418,-0.108L0.42,-0.105L0.42,-0.103L0.418,-0.101L0.417,-0.101L0.414,-0.104L0.415,-0.106ZM0.456,-0.091L0.454,-0.085L0.454,-0.084L0.452,-0.082L0.451,-0.08L0.447,-0.078L0.445,-0.08L0.441,-0.082L0.441,-0.086L0.442,-0.088L0.442,-0.089L0.444,-0.089L0.446,-0.09L0.449,-0.091L0.45,-0.091L0.453,-0.094L0.456,-0.095L0.456,-0.091ZM0.411,-0.063L0.414,-0.063L0.411,-0.061L0.408,-0.061L0.411,-0.063ZM0.435,-0.041L0.431,-0.041L0.43,-0.042L0.432,-0.044L0.433,-0.044L0.434,-0.045L0.436,-0.043L0.435,-0.041Z" style="fill:rgb(32,32,34);fill-rule:nonzero;"/>
        </g>
        <g transform="matrix(800,0,0,800,3333.16,2073.9)">
            <path d="M0.239,-0.013L0.309,0.009L0.337,0.015L0.371,0.019L0.406,0.02L0.442,0.02L0.476,0.018L0.51,0.01L0.543,-0L0.575,-0.009L0.609,-0.021L0.638,-0.037L0.668,-0.057L0.693,-0.077L0.719,-0.104L0.739,-0.129L0.774,-0.188L0.79,-0.223L0.795,-0.255L0.799,-0.292L0.805,-0.323L0.809,-0.36L0.808,-0.394L0.803,-0.429L0.798,-0.46L0.789,-0.497L0.775,-0.526L0.756,-0.558L0.741,-0.585L0.719,-0.616L0.698,-0.638L0.669,-0.664L0.642,-0.683L0.609,-0.7L0.574,-0.714L0.543,-0.722L0.51,-0.729L0.475,-0.735L0.435,-0.738L0.406,-0.739L0.373,-0.736L0.338,-0.732L0.308,-0.727L0.27,-0.719L0.241,-0.71L0.206,-0.695L0.178,-0.679L0.148,-0.659L0.122,-0.641L0.093,-0.617L0.076,-0.595L0.054,-0.559L0.042,-0.534L0.029,-0.495L0.018,-0.464L0.01,-0.429L0.006,-0.395L0.005,-0.36L0.006,-0.327L0.011,-0.291L0.017,-0.259L0.027,-0.224L0.037,-0.193L0.051,-0.159L0.071,-0.133L0.097,-0.107L0.12,-0.081L0.145,-0.058L0.174,-0.041L0.206,-0.026L0.239,-0.013ZM0.211,-0.389L0.215,-0.417L0.222,-0.438L0.231,-0.461L0.24,-0.479L0.261,-0.508L0.289,-0.532L0.328,-0.552L0.37,-0.563L0.406,-0.566L0.454,-0.563L0.486,-0.554L0.524,-0.531L0.549,-0.505L0.573,-0.475L0.59,-0.439L0.598,-0.394L0.599,-0.36L0.597,-0.32L0.588,-0.283L0.57,-0.245L0.547,-0.217L0.521,-0.191L0.485,-0.169L0.449,-0.16L0.406,-0.158L0.365,-0.163L0.33,-0.174L0.298,-0.19L0.266,-0.217L0.248,-0.238L0.233,-0.26L0.223,-0.282L0.217,-0.303L0.212,-0.328L0.209,-0.36L0.211,-0.389ZM0.239,-0.288L0.252,-0.256L0.259,-0.245L0.253,-0.278L0.251,-0.309L0.256,-0.358L0.267,-0.397L0.286,-0.435L0.31,-0.465L0.341,-0.491L0.376,-0.509L0.419,-0.522L0.461,-0.525L0.501,-0.522L0.514,-0.519L0.511,-0.521L0.476,-0.537L0.45,-0.543L0.414,-0.546L0.377,-0.543L0.339,-0.532L0.309,-0.516L0.281,-0.493L0.26,-0.467L0.243,-0.433L0.234,-0.399L0.23,-0.356L0.231,-0.329L0.239,-0.288ZM0.857,-0.354L0.853,-0.394L0.852,-0.401L0.85,-0.407L0.838,-0.439L0.83,-0.465L0.82,-0.489L0.812,-0.502L0.787,-0.543L0.804,-0.503L0.815,-0.466L0.824,-0.423L0.828,-0.383L0.829,-0.35L0.827,-0.301L0.82,-0.255L0.809,-0.212L0.791,-0.167L0.768,-0.126L0.741,-0.09L0.713,-0.061L0.667,-0.026L0.614,0.003L0.582,0.015L0.551,0.025L0.517,0.032L0.461,0.039L0.416,0.041L0.386,0.04L0.34,0.036L0.287,0.026L0.25,0.015L0.206,-0.003L0.262,0.03L0.292,0.045L0.321,0.056L0.369,0.065L0.415,0.069L0.445,0.07L0.49,0.068L0.546,0.061L0.58,0.054L0.611,0.044L0.643,0.032L0.696,0.003L0.742,-0.032L0.77,-0.061L0.797,-0.097L0.82,-0.138L0.838,-0.183L0.849,-0.226L0.856,-0.272L0.858,-0.321L0.857,-0.354ZM0.115,-0.522L0.117,-0.526L0.118,-0.526L0.119,-0.525L0.118,-0.521L0.115,-0.517L0.115,-0.522ZM0.129,-0.462L0.127,-0.457L0.125,-0.463L0.122,-0.465L0.121,-0.469L0.124,-0.473L0.128,-0.473L0.129,-0.471L0.128,-0.468L0.128,-0.467L0.129,-0.462ZM0.152,-0.456L0.153,-0.457L0.155,-0.456L0.155,-0.454L0.154,-0.452L0.153,-0.451L0.152,-0.452L0.152,-0.456ZM0.139,-0.443L0.14,-0.445L0.142,-0.446L0.143,-0.443L0.143,-0.44L0.144,-0.437L0.146,-0.436L0.151,-0.432L0.153,-0.425L0.151,-0.423L0.148,-0.427L0.146,-0.432L0.143,-0.434L0.138,-0.439L0.139,-0.443ZM0.102,-0.39L0.101,-0.392L0.103,-0.394L0.106,-0.394L0.106,-0.389L0.104,-0.388L0.102,-0.39ZM0.139,-0.34L0.137,-0.343L0.138,-0.347L0.138,-0.353L0.137,-0.356L0.138,-0.359L0.14,-0.359L0.141,-0.356L0.145,-0.352L0.147,-0.347L0.147,-0.343L0.145,-0.342L0.142,-0.339L0.139,-0.34ZM0.086,-0.336L0.088,-0.34L0.088,-0.341L0.089,-0.343L0.088,-0.347L0.09,-0.349L0.092,-0.347L0.091,-0.343L0.091,-0.336L0.089,-0.332L0.086,-0.332L0.086,-0.336ZM0.114,-0.316L0.112,-0.318L0.114,-0.321L0.117,-0.323L0.119,-0.321L0.12,-0.319L0.119,-0.316L0.116,-0.315L0.114,-0.316ZM0.171,-0.322L0.172,-0.323L0.174,-0.322L0.174,-0.319L0.172,-0.317L0.171,-0.319L0.171,-0.322ZM0.15,-0.303L0.151,-0.306L0.152,-0.303L0.152,-0.299L0.15,-0.303ZM0.092,-0.291L0.091,-0.292L0.09,-0.292L0.088,-0.295L0.089,-0.3L0.097,-0.3L0.101,-0.303L0.099,-0.294L0.092,-0.291ZM0.082,-0.246L0.08,-0.246L0.08,-0.249L0.082,-0.252L0.082,-0.255L0.081,-0.259L0.085,-0.255L0.082,-0.246ZM0.157,-0.246L0.159,-0.245L0.159,-0.243L0.157,-0.241L0.155,-0.242L0.155,-0.244L0.156,-0.246L0.157,-0.246ZM0.103,-0.225L0.1,-0.223L0.097,-0.226L0.099,-0.23L0.103,-0.234L0.104,-0.23L0.103,-0.225ZM0.178,-0.23L0.179,-0.231L0.181,-0.231L0.183,-0.23L0.182,-0.228L0.181,-0.227L0.179,-0.227L0.178,-0.228L0.178,-0.23ZM0.16,-0.223L0.16,-0.228L0.162,-0.228L0.164,-0.225L0.167,-0.216L0.161,-0.21L0.16,-0.214L0.162,-0.218L0.16,-0.223ZM0.122,-0.217L0.12,-0.216L0.118,-0.216L0.117,-0.218L0.118,-0.221L0.12,-0.222L0.121,-0.222L0.122,-0.22L0.122,-0.217ZM0.176,-0.204L0.182,-0.207L0.185,-0.208L0.187,-0.205L0.186,-0.203L0.186,-0.201L0.182,-0.199L0.178,-0.199L0.174,-0.198L0.171,-0.195L0.169,-0.194L0.168,-0.192L0.167,-0.192L0.162,-0.193L0.159,-0.201L0.163,-0.2L0.167,-0.197L0.169,-0.201L0.176,-0.204ZM0.195,-0.187L0.196,-0.19L0.198,-0.192L0.199,-0.195L0.198,-0.197L0.197,-0.198L0.2,-0.201L0.202,-0.201L0.206,-0.198L0.208,-0.194L0.207,-0.19L0.209,-0.187L0.211,-0.183L0.213,-0.181L0.213,-0.179L0.21,-0.179L0.209,-0.182L0.201,-0.184L0.193,-0.183L0.195,-0.187ZM0.194,-0.103L0.196,-0.1L0.197,-0.095L0.196,-0.093L0.195,-0.09L0.193,-0.093L0.192,-0.096L0.19,-0.098L0.187,-0.1L0.185,-0.101L0.184,-0.102L0.181,-0.101L0.179,-0.1L0.178,-0.1L0.171,-0.105L0.171,-0.108L0.173,-0.11L0.172,-0.111L0.171,-0.113L0.169,-0.115L0.167,-0.122L0.169,-0.128L0.168,-0.129L0.168,-0.13L0.162,-0.135L0.159,-0.14L0.159,-0.142L0.158,-0.142L0.156,-0.145L0.153,-0.147L0.15,-0.146L0.146,-0.148L0.145,-0.148L0.145,-0.15L0.148,-0.15L0.152,-0.149L0.15,-0.152L0.15,-0.153L0.149,-0.155L0.151,-0.161L0.154,-0.162L0.158,-0.162L0.158,-0.165L0.159,-0.168L0.165,-0.171L0.168,-0.171L0.172,-0.169L0.175,-0.171L0.173,-0.175L0.17,-0.175L0.169,-0.177L0.169,-0.18L0.17,-0.182L0.171,-0.183L0.176,-0.183L0.178,-0.182L0.179,-0.181L0.18,-0.181L0.18,-0.18L0.182,-0.174L0.187,-0.168L0.179,-0.164L0.17,-0.166L0.165,-0.166L0.164,-0.161L0.162,-0.158L0.162,-0.157L0.161,-0.157L0.16,-0.153L0.157,-0.153L0.159,-0.149L0.16,-0.149L0.161,-0.15L0.163,-0.149L0.169,-0.147L0.172,-0.147L0.176,-0.146L0.184,-0.143L0.187,-0.141L0.185,-0.139L0.182,-0.139L0.179,-0.136L0.184,-0.129L0.191,-0.129L0.193,-0.135L0.196,-0.141L0.196,-0.143L0.191,-0.145L0.189,-0.15L0.191,-0.157L0.199,-0.162L0.201,-0.16L0.204,-0.165L0.211,-0.163L0.213,-0.164L0.221,-0.172L0.219,-0.176L0.219,-0.18L0.22,-0.184L0.218,-0.189L0.216,-0.196L0.221,-0.198L0.223,-0.191L0.228,-0.18L0.226,-0.177L0.226,-0.176L0.23,-0.177L0.233,-0.176L0.234,-0.177L0.236,-0.178L0.239,-0.174L0.24,-0.173L0.24,-0.171L0.241,-0.172L0.244,-0.172L0.246,-0.171L0.255,-0.161L0.256,-0.159L0.258,-0.157L0.26,-0.156L0.263,-0.154L0.262,-0.151L0.258,-0.151L0.256,-0.149L0.252,-0.148L0.25,-0.147L0.25,-0.148L0.249,-0.149L0.248,-0.153L0.246,-0.157L0.243,-0.157L0.24,-0.155L0.235,-0.155L0.234,-0.157L0.233,-0.158L0.233,-0.159L0.236,-0.162L0.24,-0.162L0.239,-0.164L0.239,-0.168L0.238,-0.168L0.237,-0.169L0.236,-0.168L0.235,-0.168L0.234,-0.169L0.225,-0.168L0.219,-0.163L0.218,-0.159L0.215,-0.156L0.215,-0.152L0.211,-0.152L0.201,-0.15L0.202,-0.148L0.203,-0.147L0.206,-0.145L0.209,-0.144L0.216,-0.144L0.216,-0.143L0.22,-0.139L0.224,-0.13L0.217,-0.123L0.217,-0.122L0.216,-0.118L0.21,-0.117L0.207,-0.118L0.205,-0.119L0.204,-0.12L0.198,-0.122L0.197,-0.123L0.192,-0.124L0.188,-0.124L0.187,-0.125L0.178,-0.124L0.182,-0.12L0.183,-0.12L0.183,-0.119L0.189,-0.117L0.193,-0.117L0.198,-0.116L0.199,-0.115L0.201,-0.114L0.202,-0.114L0.206,-0.112L0.2,-0.107L0.196,-0.106L0.191,-0.106L0.194,-0.103ZM0.19,-0.195L0.191,-0.194L0.189,-0.193L0.188,-0.192L0.187,-0.192L0.184,-0.193L0.185,-0.194L0.185,-0.195L0.187,-0.196L0.188,-0.196L0.19,-0.195ZM0.152,-0.187L0.15,-0.184L0.147,-0.185L0.145,-0.188L0.144,-0.192L0.145,-0.194L0.148,-0.194L0.15,-0.191L0.152,-0.187ZM0.184,-0.151L0.183,-0.149L0.18,-0.148L0.177,-0.15L0.175,-0.153L0.176,-0.155L0.179,-0.155L0.183,-0.153L0.184,-0.151ZM0.616,-0.153L0.62,-0.153L0.621,-0.152L0.622,-0.15L0.617,-0.148L0.612,-0.149L0.616,-0.153ZM0.111,-0.143L0.11,-0.143L0.108,-0.144L0.106,-0.147L0.105,-0.149L0.105,-0.152L0.107,-0.151L0.109,-0.148L0.111,-0.144L0.111,-0.143ZM0.291,-0.149L0.29,-0.152L0.293,-0.15L0.294,-0.15L0.293,-0.149L0.293,-0.148L0.292,-0.147L0.292,-0.148L0.291,-0.149ZM0.225,-0.143L0.228,-0.146L0.23,-0.146L0.233,-0.143L0.232,-0.141L0.23,-0.139L0.226,-0.141L0.225,-0.143ZM0.281,-0.144L0.279,-0.146L0.285,-0.144L0.287,-0.142L0.287,-0.14L0.288,-0.14L0.287,-0.139L0.287,-0.138L0.286,-0.136L0.284,-0.134L0.28,-0.132L0.28,-0.136L0.284,-0.142L0.281,-0.144ZM0.291,-0.135L0.293,-0.137L0.3,-0.138L0.305,-0.138L0.306,-0.135L0.303,-0.134L0.301,-0.128L0.301,-0.125L0.297,-0.124L0.292,-0.125L0.289,-0.129L0.288,-0.13L0.287,-0.13L0.287,-0.131L0.288,-0.134L0.289,-0.134L0.291,-0.135ZM0.145,-0.125L0.143,-0.129L0.146,-0.129L0.149,-0.126L0.15,-0.122L0.145,-0.125ZM0.353,-0.124L0.353,-0.127L0.356,-0.129L0.356,-0.126L0.353,-0.124ZM0.275,-0.114L0.273,-0.113L0.271,-0.115L0.271,-0.117L0.272,-0.117L0.273,-0.118L0.275,-0.116L0.275,-0.114ZM0.308,-0.114L0.305,-0.111L0.3,-0.113L0.301,-0.116L0.303,-0.118L0.305,-0.118L0.308,-0.114ZM0.311,-0.109L0.313,-0.112L0.314,-0.113L0.314,-0.111L0.315,-0.109L0.314,-0.105L0.313,-0.104L0.311,-0.104L0.312,-0.106L0.311,-0.109ZM0.588,-0.106L0.585,-0.105L0.585,-0.104L0.584,-0.104L0.581,-0.1L0.575,-0.099L0.577,-0.102L0.578,-0.105L0.577,-0.11L0.58,-0.113L0.585,-0.112L0.589,-0.108L0.588,-0.106ZM0.258,-0.109L0.259,-0.112L0.263,-0.109L0.262,-0.107L0.262,-0.106L0.261,-0.105L0.26,-0.105L0.258,-0.109ZM0.281,-0.112L0.282,-0.111L0.289,-0.106L0.281,-0.11L0.28,-0.11L0.279,-0.111L0.278,-0.111L0.276,-0.112L0.281,-0.112ZM0.37,-0.102L0.365,-0.104L0.356,-0.105L0.354,-0.105L0.353,-0.106L0.35,-0.107L0.354,-0.108L0.356,-0.11L0.357,-0.11L0.365,-0.106L0.367,-0.107L0.368,-0.107L0.377,-0.102L0.37,-0.102ZM0.393,-0.104L0.388,-0.105L0.384,-0.107L0.384,-0.11L0.387,-0.11L0.39,-0.107L0.397,-0.109L0.393,-0.104ZM0.474,-0.103L0.47,-0.106L0.47,-0.109L0.474,-0.11L0.478,-0.108L0.479,-0.107L0.481,-0.107L0.484,-0.109L0.487,-0.106L0.485,-0.103L0.481,-0.104L0.48,-0.103L0.474,-0.103ZM0.216,-0.104L0.214,-0.104L0.213,-0.105L0.211,-0.109L0.213,-0.109L0.216,-0.106L0.216,-0.104ZM0.23,-0.108L0.237,-0.107L0.241,-0.105L0.244,-0.106L0.245,-0.109L0.248,-0.109L0.25,-0.106L0.251,-0.104L0.249,-0.101L0.245,-0.101L0.24,-0.103L0.235,-0.104L0.231,-0.102L0.225,-0.103L0.224,-0.104L0.224,-0.105L0.23,-0.108ZM0.43,-0.098L0.43,-0.1L0.434,-0.104L0.438,-0.102L0.438,-0.098L0.439,-0.092L0.442,-0.087L0.432,-0.089L0.43,-0.098ZM0.278,-0.094L0.285,-0.095L0.289,-0.091L0.274,-0.094L0.274,-0.101L0.275,-0.1L0.275,-0.099L0.276,-0.097L0.278,-0.094ZM0.309,-0.084L0.304,-0.081L0.3,-0.08L0.293,-0.08L0.287,-0.081L0.295,-0.086L0.301,-0.091L0.304,-0.094L0.305,-0.094L0.308,-0.093L0.31,-0.091L0.311,-0.089L0.31,-0.086L0.309,-0.084ZM0.516,-0.087L0.515,-0.088L0.514,-0.09L0.514,-0.094L0.515,-0.093L0.515,-0.092L0.516,-0.092L0.517,-0.089L0.516,-0.087ZM0.255,-0.08L0.246,-0.084L0.243,-0.081L0.24,-0.079L0.236,-0.079L0.232,-0.078L0.229,-0.075L0.226,-0.071L0.227,-0.069L0.227,-0.068L0.229,-0.065L0.229,-0.064L0.237,-0.055L0.24,-0.053L0.245,-0.051L0.253,-0.045L0.254,-0.044L0.252,-0.044L0.246,-0.045L0.237,-0.047L0.236,-0.047L0.222,-0.057L0.224,-0.065L0.222,-0.069L0.224,-0.072L0.225,-0.077L0.227,-0.081L0.227,-0.084L0.224,-0.086L0.221,-0.085L0.218,-0.088L0.219,-0.092L0.223,-0.093L0.229,-0.093L0.232,-0.088L0.238,-0.084L0.242,-0.087L0.24,-0.092L0.244,-0.092L0.248,-0.093L0.251,-0.093L0.256,-0.086L0.256,-0.083L0.257,-0.081L0.255,-0.08ZM0.317,-0.091L0.317,-0.093L0.32,-0.093L0.321,-0.092L0.322,-0.092L0.321,-0.09L0.319,-0.089L0.317,-0.091ZM0.333,-0.09L0.34,-0.086L0.345,-0.084L0.345,-0.082L0.343,-0.082L0.337,-0.084L0.333,-0.09ZM0.356,-0.081L0.353,-0.081L0.352,-0.082L0.353,-0.083L0.353,-0.084L0.356,-0.084L0.358,-0.082L0.356,-0.081ZM0.37,-0.076L0.365,-0.077L0.363,-0.081L0.365,-0.084L0.37,-0.083L0.372,-0.081L0.374,-0.077L0.37,-0.076ZM0.272,-0.075L0.266,-0.076L0.263,-0.077L0.259,-0.077L0.258,-0.078L0.258,-0.079L0.261,-0.079L0.264,-0.08L0.268,-0.08L0.27,-0.081L0.273,-0.082L0.275,-0.08L0.276,-0.078L0.276,-0.076L0.275,-0.075L0.272,-0.075ZM0.312,-0.077L0.311,-0.078L0.311,-0.079L0.312,-0.08L0.314,-0.081L0.315,-0.079L0.315,-0.078L0.314,-0.077L0.312,-0.077ZM0.579,-0.074L0.576,-0.072L0.574,-0.069L0.576,-0.066L0.576,-0.059L0.572,-0.052L0.571,-0.052L0.569,-0.053L0.57,-0.059L0.573,-0.064L0.571,-0.073L0.571,-0.077L0.575,-0.078L0.577,-0.079L0.579,-0.077L0.579,-0.074ZM0.393,-0.072L0.39,-0.072L0.387,-0.073L0.385,-0.076L0.388,-0.077L0.39,-0.078L0.395,-0.076L0.397,-0.073L0.393,-0.072ZM0.456,-0.064L0.455,-0.068L0.456,-0.07L0.458,-0.073L0.461,-0.071L0.463,-0.067L0.459,-0.063L0.456,-0.064ZM0.598,-0.07L0.597,-0.069L0.594,-0.068L0.593,-0.069L0.593,-0.07L0.594,-0.072L0.596,-0.073L0.598,-0.072L0.598,-0.07ZM0.335,-0.062L0.325,-0.061L0.332,-0.064L0.338,-0.071L0.335,-0.062ZM0.349,-0.068L0.342,-0.071L0.349,-0.071L0.351,-0.07L0.353,-0.068L0.349,-0.068ZM0.298,-0.058L0.294,-0.058L0.291,-0.06L0.291,-0.062L0.292,-0.062L0.293,-0.063L0.297,-0.062L0.299,-0.061L0.301,-0.059L0.298,-0.058ZM0.295,-0.045L0.294,-0.044L0.288,-0.045L0.287,-0.045L0.286,-0.046L0.285,-0.046L0.276,-0.052L0.276,-0.06L0.281,-0.055L0.288,-0.053L0.291,-0.051L0.294,-0.05L0.295,-0.047L0.295,-0.045ZM0.499,-0.04L0.497,-0.038L0.493,-0.033L0.487,-0.029L0.484,-0.028L0.483,-0.032L0.479,-0.035L0.48,-0.04L0.483,-0.043L0.487,-0.041L0.493,-0.041L0.496,-0.043L0.499,-0.042L0.499,-0.04ZM0.328,-0.023L0.318,-0.026L0.315,-0.034L0.32,-0.037L0.325,-0.034L0.329,-0.032L0.332,-0.029L0.334,-0.024L0.328,-0.023ZM0.272,-0.024L0.27,-0.022L0.269,-0.022L0.267,-0.023L0.265,-0.027L0.266,-0.031L0.267,-0.032L0.268,-0.032L0.268,-0.036L0.272,-0.036L0.274,-0.033L0.271,-0.031L0.271,-0.028L0.272,-0.024ZM0.445,-0.018L0.441,-0.018L0.444,-0.021L0.448,-0.02L0.445,-0.018ZM0.465,0.007L0.464,0.009L0.462,0.009L0.46,0.007L0.461,0.005L0.464,0.005L0.465,0.006L0.465,0.007Z" style="fill:rgb(32,32,34);fill-rule:nonzero;"/>
        </g>
        <g transform="matrix(800,0,0,800,4007.56,2073.9)">
            <path d="M0.553,-0.365L0.557,-0.362L0.56,-0.359L0.567,-0.354L0.576,-0.354L0.583,-0.359L0.586,-0.367L0.583,-0.387L0.58,-0.401L0.575,-0.435L0.574,-0.455L0.574,-0.474L0.576,-0.544L0.578,-0.55L0.578,-0.554L0.541,-0.553L0.521,-0.552L0.506,-0.555L0.502,-0.563L0.504,-0.575L0.505,-0.607L0.507,-0.64L0.506,-0.673L0.51,-0.705L0.511,-0.711L0.513,-0.715L0.523,-0.719L0.563,-0.723L0.605,-0.721L0.687,-0.723L0.728,-0.721L0.769,-0.72L0.81,-0.721L0.851,-0.718L0.861,-0.715L0.865,-0.705L0.867,-0.673L0.865,-0.64L0.866,-0.607L0.863,-0.575L0.86,-0.566L0.856,-0.564L0.85,-0.562L0.825,-0.558L0.799,-0.556L0.787,-0.557L0.781,-0.556L0.78,-0.553L0.78,-0.515L0.785,-0.476L0.782,-0.437L0.78,-0.399L0.783,-0.361L0.786,-0.322L0.782,-0.246L0.782,-0.169L0.784,-0.13L0.787,-0.092L0.78,-0.016L0.777,-0.006L0.767,-0.003L0.73,0.003L0.692,0.004L0.654,0.002L0.617,-0.002L0.608,-0.001L0.602,-0.003L0.579,-0.032L0.557,-0.061L0.536,-0.09L0.514,-0.12L0.492,-0.149L0.47,-0.177L0.447,-0.206L0.425,-0.234L0.404,-0.265L0.384,-0.295L0.36,-0.322L0.336,-0.35L0.331,-0.36L0.327,-0.37L0.322,-0.373L0.315,-0.372L0.307,-0.367L0.307,-0.364L0.309,-0.298L0.311,-0.265L0.312,-0.232L0.308,-0.176L0.308,-0.168L0.314,-0.164L0.376,-0.16L0.382,-0.155L0.382,-0.145L0.383,-0.113L0.383,-0.08L0.386,-0.047L0.385,-0.015L0.379,-0.003L0.367,0.001L0.326,0.002L0.284,-0.002L0.201,0.002L0.118,0.002L0.077,0.004L0.035,0.001L0.023,-0.004L0.017,-0.015L0.016,-0.047L0.02,-0.08L0.018,-0.113L0.02,-0.145L0.024,-0.156L0.035,-0.161L0.045,-0.162L0.063,-0.159L0.09,-0.158L0.097,-0.16L0.102,-0.164L0.108,-0.176L0.109,-0.212L0.106,-0.249L0.106,-0.286L0.107,-0.323L0.106,-0.36L0.106,-0.397L0.105,-0.433L0.103,-0.47L0.106,-0.507L0.103,-0.543L0.1,-0.555L0.096,-0.559L0.09,-0.56L0.063,-0.56L0.051,-0.557L0.035,-0.559L0.026,-0.564L0.023,-0.575L0.018,-0.607L0.017,-0.64L0.015,-0.673L0.018,-0.706L0.023,-0.716L0.035,-0.72L0.074,-0.725L0.114,-0.725L0.232,-0.722L0.271,-0.719L0.278,-0.719L0.283,-0.715L0.307,-0.687L0.33,-0.658L0.37,-0.596L0.466,-0.484L0.486,-0.452L0.506,-0.421L0.53,-0.393L0.553,-0.365ZM0.744,-0.696L0.742,-0.696L0.741,-0.693L0.742,-0.692L0.745,-0.692L0.746,-0.694L0.744,-0.696ZM0.76,-0.669L0.763,-0.669L0.766,-0.671L0.763,-0.671L0.76,-0.669ZM0.919,-0.618L0.917,-0.65L0.913,-0.66L0.903,-0.663L0.891,-0.664L0.889,-0.64L0.89,-0.608L0.886,-0.554L0.883,-0.544L0.878,-0.539L0.868,-0.537L0.847,-0.537L0.826,-0.534L0.804,-0.532L0.804,-0.516L0.809,-0.474L0.806,-0.436L0.804,-0.399L0.807,-0.363L0.81,-0.324L0.808,-0.283L0.806,-0.245L0.806,-0.169L0.808,-0.132L0.81,-0.093L0.804,-0.014L0.803,0.003L0.799,0.014L0.789,0.021L0.777,0.023L0.732,0.027L0.692,0.028L0.653,0.026L0.634,0.024L0.657,0.052L0.663,0.054L0.672,0.053L0.709,0.057L0.745,0.054L0.783,0.053L0.82,0.047L0.83,0.044L0.833,0.034L0.842,-0.037L0.839,-0.075L0.837,-0.114L0.837,-0.191L0.841,-0.267L0.838,-0.306L0.835,-0.344L0.837,-0.382L0.84,-0.421L0.835,-0.463L0.835,-0.501L0.836,-0.504L0.842,-0.505L0.854,-0.504L0.88,-0.506L0.902,-0.51L0.908,-0.512L0.912,-0.514L0.915,-0.523L0.918,-0.552L0.917,-0.585L0.919,-0.618ZM0.731,-0.652L0.728,-0.655L0.727,-0.655L0.726,-0.657L0.725,-0.658L0.721,-0.657L0.715,-0.653L0.713,-0.65L0.712,-0.648L0.71,-0.646L0.711,-0.644L0.714,-0.643L0.716,-0.645L0.72,-0.645L0.723,-0.646L0.728,-0.645L0.73,-0.647L0.73,-0.648L0.731,-0.652ZM0.753,-0.627L0.751,-0.625L0.75,-0.623L0.752,-0.619L0.755,-0.618L0.756,-0.62L0.757,-0.623L0.756,-0.626L0.753,-0.627ZM0.844,-0.621L0.835,-0.621L0.837,-0.617L0.839,-0.615L0.844,-0.614L0.846,-0.618L0.844,-0.621ZM0.211,-0.61L0.205,-0.612L0.205,-0.608L0.207,-0.606L0.21,-0.606L0.211,-0.608L0.211,-0.61ZM0.66,-0.581L0.662,-0.584L0.662,-0.587L0.659,-0.591L0.657,-0.595L0.658,-0.6L0.657,-0.606L0.655,-0.606L0.654,-0.605L0.652,-0.598L0.655,-0.592L0.657,-0.589L0.657,-0.586L0.655,-0.584L0.655,-0.581L0.658,-0.58L0.66,-0.581ZM0.771,-0.606L0.774,-0.601L0.775,-0.595L0.775,-0.591L0.78,-0.59L0.783,-0.594L0.783,-0.596L0.78,-0.604L0.771,-0.606ZM0.221,-0.582L0.224,-0.592L0.221,-0.598L0.218,-0.599L0.216,-0.598L0.218,-0.591L0.221,-0.582ZM0.722,-0.593L0.722,-0.594L0.721,-0.595L0.719,-0.596L0.719,-0.594L0.722,-0.591L0.724,-0.591L0.722,-0.593ZM0.824,-0.593L0.819,-0.593L0.816,-0.588L0.822,-0.59L0.825,-0.588L0.828,-0.589L0.828,-0.591L0.824,-0.593ZM0.285,-0.586L0.289,-0.583L0.292,-0.585L0.294,-0.587L0.293,-0.59L0.285,-0.592L0.285,-0.586ZM0.741,-0.588L0.737,-0.587L0.736,-0.587L0.735,-0.586L0.734,-0.586L0.734,-0.584L0.735,-0.583L0.738,-0.583L0.742,-0.581L0.746,-0.582L0.746,-0.584L0.745,-0.585L0.741,-0.588ZM0.639,-0.58L0.64,-0.581L0.641,-0.583L0.64,-0.584L0.639,-0.584L0.637,-0.583L0.636,-0.581L0.637,-0.58L0.639,-0.58ZM0.254,-0.577L0.255,-0.578L0.256,-0.58L0.254,-0.581L0.252,-0.581L0.25,-0.577L0.252,-0.576L0.254,-0.577ZM0.276,-0.568L0.283,-0.566L0.285,-0.57L0.283,-0.575L0.28,-0.577L0.276,-0.579L0.274,-0.574L0.276,-0.568ZM0.177,-0.566L0.179,-0.572L0.177,-0.573L0.175,-0.573L0.171,-0.567L0.172,-0.561L0.177,-0.566ZM0.231,-0.568L0.234,-0.566L0.236,-0.567L0.237,-0.57L0.237,-0.571L0.233,-0.572L0.23,-0.571L0.23,-0.569L0.231,-0.568ZM0.254,-0.554L0.266,-0.556L0.28,-0.559L0.266,-0.567L0.252,-0.569L0.245,-0.566L0.243,-0.557L0.248,-0.552L0.254,-0.554ZM0.665,-0.558L0.666,-0.562L0.661,-0.559L0.659,-0.554L0.658,-0.554L0.656,-0.552L0.656,-0.55L0.661,-0.547L0.666,-0.548L0.667,-0.552L0.665,-0.555L0.665,-0.558ZM0.296,-0.549L0.299,-0.549L0.307,-0.547L0.314,-0.545L0.314,-0.548L0.308,-0.552L0.302,-0.557L0.299,-0.559L0.296,-0.558L0.294,-0.552L0.296,-0.549ZM0.344,-0.537L0.346,-0.53L0.347,-0.523L0.347,-0.518L0.341,-0.514L0.335,-0.509L0.324,-0.509L0.313,-0.504L0.301,-0.509L0.299,-0.502L0.301,-0.493L0.317,-0.493L0.317,-0.499L0.324,-0.502L0.329,-0.496L0.332,-0.489L0.339,-0.488L0.346,-0.489L0.349,-0.494L0.347,-0.497L0.342,-0.497L0.338,-0.5L0.34,-0.504L0.345,-0.51L0.349,-0.516L0.354,-0.52L0.352,-0.526L0.36,-0.536L0.351,-0.546L0.338,-0.552L0.34,-0.543L0.344,-0.537ZM0.218,-0.538L0.226,-0.54L0.229,-0.547L0.227,-0.548L0.224,-0.55L0.219,-0.546L0.218,-0.538ZM0.243,-0.535L0.244,-0.534L0.246,-0.533L0.249,-0.522L0.261,-0.517L0.256,-0.527L0.249,-0.535L0.247,-0.542L0.24,-0.548L0.242,-0.541L0.243,-0.535ZM0.32,-0.529L0.322,-0.521L0.33,-0.522L0.336,-0.533L0.33,-0.545L0.322,-0.548L0.32,-0.541L0.32,-0.529ZM0.277,-0.526L0.284,-0.534L0.269,-0.547L0.269,-0.539L0.278,-0.537L0.277,-0.532L0.277,-0.526ZM0.299,-0.52L0.307,-0.531L0.302,-0.544L0.301,-0.544L0.299,-0.545L0.293,-0.547L0.288,-0.541L0.292,-0.537L0.297,-0.529L0.299,-0.52ZM0.227,-0.529L0.226,-0.523L0.229,-0.521L0.237,-0.526L0.233,-0.531L0.227,-0.529ZM0.291,-0.511L0.289,-0.507L0.292,-0.502L0.295,-0.506L0.295,-0.511L0.293,-0.512L0.291,-0.511ZM0.255,-0.498L0.254,-0.506L0.25,-0.51L0.247,-0.509L0.246,-0.508L0.25,-0.503L0.255,-0.498ZM0.267,-0.507L0.265,-0.505L0.269,-0.499L0.273,-0.499L0.273,-0.502L0.272,-0.505L0.27,-0.507L0.267,-0.507ZM0.648,-0.505L0.643,-0.504L0.639,-0.501L0.641,-0.499L0.646,-0.501L0.648,-0.505ZM0.198,-0.496L0.198,-0.497L0.199,-0.497L0.2,-0.501L0.198,-0.504L0.191,-0.503L0.185,-0.499L0.187,-0.493L0.192,-0.491L0.196,-0.483L0.2,-0.489L0.198,-0.496ZM0.355,-0.498L0.359,-0.496L0.359,-0.503L0.357,-0.503L0.356,-0.504L0.354,-0.501L0.355,-0.498ZM0.258,-0.477L0.255,-0.479L0.259,-0.483L0.263,-0.486L0.267,-0.494L0.257,-0.493L0.247,-0.493L0.247,-0.488L0.25,-0.484L0.252,-0.477L0.26,-0.474L0.258,-0.477ZM0.292,-0.486L0.296,-0.483L0.306,-0.48L0.316,-0.482L0.316,-0.486L0.308,-0.488L0.301,-0.486L0.294,-0.489L0.288,-0.493L0.283,-0.493L0.28,-0.49L0.279,-0.486L0.281,-0.483L0.285,-0.482L0.288,-0.485L0.292,-0.486ZM0.355,-0.489L0.353,-0.487L0.353,-0.483L0.358,-0.481L0.363,-0.482L0.364,-0.484L0.363,-0.488L0.359,-0.49L0.355,-0.489ZM0.243,-0.485L0.241,-0.484L0.241,-0.478L0.243,-0.477L0.245,-0.479L0.246,-0.481L0.246,-0.484L0.243,-0.485ZM0.282,-0.474L0.277,-0.479L0.271,-0.48L0.269,-0.475L0.265,-0.473L0.262,-0.47L0.257,-0.47L0.256,-0.466L0.257,-0.464L0.27,-0.461L0.279,-0.461L0.283,-0.463L0.282,-0.468L0.282,-0.474ZM0.306,-0.473L0.304,-0.477L0.299,-0.474L0.297,-0.469L0.294,-0.466L0.289,-0.464L0.288,-0.459L0.293,-0.457L0.297,-0.462L0.3,-0.462L0.305,-0.466L0.306,-0.473ZM0.232,-0.457L0.228,-0.458L0.226,-0.462L0.226,-0.466L0.223,-0.469L0.22,-0.468L0.218,-0.465L0.217,-0.461L0.221,-0.457L0.227,-0.454L0.232,-0.452L0.235,-0.445L0.241,-0.44L0.243,-0.441L0.244,-0.442L0.24,-0.451L0.232,-0.457ZM0.311,-0.455L0.313,-0.451L0.315,-0.45L0.321,-0.454L0.321,-0.457L0.317,-0.459L0.313,-0.458L0.311,-0.455ZM0.308,-0.444L0.307,-0.448L0.303,-0.448L0.302,-0.445L0.305,-0.442L0.306,-0.437L0.309,-0.432L0.306,-0.428L0.307,-0.422L0.312,-0.418L0.318,-0.417L0.321,-0.421L0.318,-0.426L0.32,-0.43L0.324,-0.432L0.33,-0.442L0.319,-0.441L0.308,-0.444ZM0.398,-0.448L0.393,-0.448L0.392,-0.443L0.394,-0.438L0.397,-0.435L0.402,-0.436L0.403,-0.441L0.401,-0.445L0.398,-0.448ZM0.382,-0.423L0.377,-0.431L0.37,-0.43L0.365,-0.425L0.36,-0.419L0.355,-0.417L0.349,-0.415L0.344,-0.411L0.343,-0.405L0.346,-0.402L0.35,-0.404L0.368,-0.418L0.369,-0.421L0.371,-0.424L0.377,-0.422L0.382,-0.423ZM0.338,-0.429L0.332,-0.426L0.332,-0.424L0.336,-0.421L0.341,-0.422L0.342,-0.424L0.342,-0.426L0.338,-0.429ZM0.441,-0.419L0.439,-0.417L0.439,-0.413L0.44,-0.411L0.442,-0.411L0.445,-0.414L0.445,-0.417L0.444,-0.42L0.441,-0.419ZM0.38,-0.399L0.382,-0.404L0.382,-0.41L0.372,-0.399L0.379,-0.389L0.382,-0.386L0.385,-0.387L0.384,-0.393L0.38,-0.399ZM0.411,-0.409L0.406,-0.409L0.405,-0.408L0.409,-0.404L0.412,-0.405L0.412,-0.407L0.411,-0.409ZM0.159,-0.391L0.162,-0.391L0.163,-0.394L0.162,-0.398L0.158,-0.399L0.156,-0.397L0.153,-0.396L0.157,-0.393L0.159,-0.391ZM0.354,-0.379L0.352,-0.377L0.352,-0.375L0.355,-0.373L0.357,-0.374L0.359,-0.376L0.359,-0.378L0.357,-0.38L0.354,-0.379ZM0.392,-0.371L0.388,-0.367L0.389,-0.364L0.391,-0.364L0.393,-0.365L0.394,-0.368L0.394,-0.371L0.392,-0.371ZM0.236,-0.347L0.229,-0.352L0.226,-0.355L0.224,-0.355L0.222,-0.351L0.225,-0.348L0.225,-0.339L0.223,-0.334L0.227,-0.33L0.233,-0.329L0.238,-0.334L0.242,-0.335L0.241,-0.34L0.236,-0.347ZM0.415,-0.355L0.416,-0.349L0.419,-0.345L0.423,-0.345L0.421,-0.351L0.415,-0.355ZM0.426,-0.344L0.425,-0.343L0.425,-0.338L0.43,-0.333L0.43,-0.34L0.428,-0.345L0.426,-0.344ZM0.139,-0.315L0.143,-0.32L0.143,-0.328L0.142,-0.33L0.143,-0.335L0.139,-0.338L0.135,-0.334L0.138,-0.329L0.137,-0.327L0.137,-0.325L0.134,-0.32L0.135,-0.315L0.139,-0.315ZM0.522,-0.312L0.524,-0.313L0.524,-0.317L0.522,-0.319L0.52,-0.318L0.519,-0.316L0.52,-0.314L0.522,-0.312ZM0.336,-0.232L0.333,-0.186L0.362,-0.186L0.362,-0.212L0.36,-0.245L0.359,-0.278L0.359,-0.284L0.342,-0.306L0.333,-0.317L0.333,-0.298L0.335,-0.265L0.336,-0.232ZM0.289,-0.311L0.288,-0.311L0.287,-0.31L0.287,-0.307L0.29,-0.305L0.291,-0.306L0.293,-0.307L0.292,-0.31L0.289,-0.311ZM0.482,-0.302L0.482,-0.303L0.481,-0.307L0.478,-0.307L0.473,-0.303L0.472,-0.297L0.476,-0.294L0.481,-0.295L0.485,-0.294L0.488,-0.292L0.488,-0.298L0.482,-0.302ZM0.191,-0.306L0.186,-0.303L0.183,-0.299L0.187,-0.297L0.19,-0.296L0.195,-0.297L0.197,-0.302L0.191,-0.306ZM0.527,-0.293L0.524,-0.291L0.52,-0.293L0.518,-0.296L0.515,-0.297L0.513,-0.294L0.513,-0.291L0.515,-0.288L0.519,-0.287L0.53,-0.289L0.536,-0.286L0.543,-0.286L0.543,-0.287L0.544,-0.289L0.536,-0.293L0.527,-0.293ZM0.253,-0.283L0.256,-0.279L0.257,-0.284L0.254,-0.288L0.253,-0.283ZM0.151,-0.273L0.145,-0.273L0.143,-0.267L0.149,-0.262L0.151,-0.262L0.163,-0.265L0.166,-0.278L0.159,-0.274L0.151,-0.273ZM0.648,-0.222L0.645,-0.221L0.644,-0.22L0.644,-0.219L0.646,-0.217L0.649,-0.217L0.65,-0.218L0.65,-0.22L0.648,-0.222ZM0.138,-0.218L0.14,-0.208L0.137,-0.205L0.137,-0.201L0.141,-0.201L0.143,-0.206L0.144,-0.213L0.138,-0.218ZM0.596,-0.204L0.597,-0.209L0.599,-0.213L0.596,-0.216L0.589,-0.218L0.578,-0.218L0.576,-0.217L0.577,-0.213L0.58,-0.212L0.583,-0.209L0.585,-0.206L0.586,-0.202L0.591,-0.201L0.596,-0.204ZM0.51,-0.214L0.506,-0.212L0.505,-0.21L0.505,-0.208L0.508,-0.207L0.512,-0.207L0.513,-0.209L0.512,-0.211L0.51,-0.214ZM0.176,-0.186L0.173,-0.183L0.171,-0.176L0.176,-0.173L0.181,-0.176L0.181,-0.183L0.18,-0.188L0.176,-0.186ZM0.639,-0.181L0.637,-0.184L0.633,-0.186L0.635,-0.182L0.639,-0.181ZM0.585,-0.165L0.579,-0.165L0.577,-0.16L0.577,-0.156L0.581,-0.156L0.584,-0.157L0.586,-0.161L0.585,-0.165ZM0.533,-0.155L0.532,-0.155L0.53,-0.159L0.525,-0.159L0.525,-0.155L0.529,-0.153L0.531,-0.149L0.531,-0.144L0.535,-0.141L0.537,-0.142L0.538,-0.144L0.538,-0.15L0.533,-0.155ZM0.573,-0.125L0.568,-0.12L0.566,-0.119L0.564,-0.117L0.567,-0.112L0.573,-0.111L0.574,-0.112L0.575,-0.112L0.581,-0.121L0.576,-0.132L0.573,-0.125ZM0.438,-0.058L0.437,-0.09L0.437,-0.1L0.431,-0.105L0.407,-0.106L0.407,-0.081L0.41,-0.046L0.409,-0.014L0.409,-0.008L0.408,-0.002L0.405,0.008L0.4,0.017L0.393,0.023L0.381,0.025L0.368,0.025L0.323,0.026L0.284,0.022L0.202,0.026L0.119,0.026L0.072,0.028L0.072,0.04L0.078,0.051L0.09,0.056L0.132,0.059L0.173,0.057L0.256,0.057L0.339,0.053L0.381,0.057L0.422,0.056L0.434,0.052L0.44,0.04L0.441,0.008L0.438,-0.025L0.438,-0.058ZM0.635,-0.076L0.632,-0.07L0.632,-0.069L0.634,-0.063L0.639,-0.064L0.641,-0.068L0.638,-0.073L0.635,-0.076ZM0.599,-0.069L0.596,-0.074L0.589,-0.074L0.592,-0.072L0.595,-0.069L0.595,-0.065L0.597,-0.062L0.6,-0.064L0.599,-0.069Z" style="fill:rgb(32,32,34);fill-rule:nonzero;"/>
        </g>
    </g>
    <g transform="matrix(1,0,0,1,-87.7614,0)">
        <g transform="matrix(1,0,0,1,-76.4883,-810.3)">
            <rect x="748.977" y="2965" width="2751.02" height="529" style="fill:rgb(255,241,214);"/>
        </g>
        <g transform="matrix(1,0,0,1,-659.362,-204.242)">
            <g transform="matrix(800,0,0,800,1507.36,2814.64)">
                <rect x="0.142" y="-0.312" width="0.316" height="0.04" style="fill:rgb(40,150,90);fill-rule:nonzero;"/>
            </g>
            <g transform="matrix(800,0,0,800,1987.36,2814.64)">
                <path d="M0.09,-0.238C0.09,-0.278 0.097,-0.314 0.111,-0.345C0.124,-0.376 0.143,-0.403 0.166,-0.424C0.189,-0.445 0.217,-0.462 0.248,-0.473C0.279,-0.484 0.313,-0.49 0.348,-0.49C0.368,-0.49 0.386,-0.488 0.403,-0.484C0.42,-0.48 0.435,-0.475 0.449,-0.468C0.463,-0.46 0.476,-0.452 0.487,-0.444C0.498,-0.435 0.509,-0.425 0.519,-0.416L0.499,-0.394C0.478,-0.414 0.456,-0.43 0.432,-0.443C0.407,-0.456 0.379,-0.462 0.348,-0.462C0.315,-0.462 0.284,-0.456 0.257,-0.446C0.229,-0.435 0.205,-0.419 0.185,-0.4C0.165,-0.38 0.15,-0.356 0.139,-0.329C0.128,-0.301 0.122,-0.271 0.122,-0.238C0.122,-0.205 0.127,-0.174 0.138,-0.148C0.149,-0.121 0.164,-0.097 0.184,-0.078C0.204,-0.058 0.228,-0.043 0.256,-0.032C0.283,-0.021 0.314,-0.016 0.348,-0.016C0.382,-0.016 0.413,-0.023 0.44,-0.036C0.467,-0.049 0.492,-0.067 0.514,-0.088L0.532,-0.066C0.508,-0.043 0.481,-0.024 0.451,-0.01C0.42,0.005 0.386,0.012 0.348,0.012C0.311,0.012 0.276,0.006 0.245,-0.005C0.214,-0.016 0.187,-0.033 0.164,-0.054C0.14,-0.075 0.123,-0.101 0.11,-0.133C0.096,-0.164 0.09,-0.199 0.09,-0.238Z" style="fill:rgb(40,150,90);fill-rule:nonzero;"/>
            </g>
            <g transform="matrix(800,0,0,800,2467.36,2814.64)">
                <path d="M0.08,-0.478L0.106,-0.478L0.11,-0.412L0.112,-0.412C0.127,-0.436 0.142,-0.455 0.159,-0.469C0.175,-0.483 0.196,-0.49 0.223,-0.49C0.25,-0.49 0.272,-0.483 0.287,-0.469C0.302,-0.455 0.313,-0.433 0.32,-0.404C0.339,-0.432 0.357,-0.453 0.374,-0.468C0.391,-0.483 0.412,-0.49 0.439,-0.49C0.472,-0.49 0.498,-0.478 0.516,-0.455C0.533,-0.432 0.542,-0.396 0.542,-0.348L0.542,-0L0.512,-0L0.512,-0.344C0.512,-0.423 0.487,-0.462 0.437,-0.462C0.414,-0.462 0.394,-0.454 0.377,-0.438C0.36,-0.422 0.343,-0.398 0.326,-0.366L0.326,-0L0.296,-0L0.296,-0.344C0.296,-0.423 0.271,-0.462 0.221,-0.462C0.198,-0.462 0.178,-0.454 0.161,-0.438C0.144,-0.422 0.127,-0.398 0.11,-0.366L0.11,-0L0.08,-0L0.08,-0.478Z" style="fill:rgb(40,150,90);fill-rule:nonzero;"/>
            </g>
            <g transform="matrix(800,0,0,800,2947.36,2814.64)">
                <path d="M0.106,-0.088C0.132,-0.066 0.162,-0.049 0.196,-0.036C0.229,-0.023 0.272,-0.016 0.324,-0.016C0.35,-0.016 0.373,-0.019 0.393,-0.025C0.412,-0.03 0.429,-0.038 0.442,-0.047C0.455,-0.056 0.465,-0.067 0.472,-0.08C0.479,-0.092 0.482,-0.105 0.482,-0.118C0.482,-0.129 0.48,-0.14 0.476,-0.151C0.471,-0.161 0.463,-0.171 0.45,-0.18C0.436,-0.189 0.418,-0.199 0.395,-0.208C0.372,-0.217 0.341,-0.225 0.304,-0.234C0.276,-0.241 0.251,-0.248 0.228,-0.257C0.205,-0.266 0.185,-0.276 0.168,-0.287C0.151,-0.298 0.137,-0.31 0.128,-0.323C0.119,-0.336 0.114,-0.351 0.114,-0.366C0.114,-0.383 0.118,-0.399 0.125,-0.414C0.132,-0.429 0.142,-0.442 0.158,-0.453C0.172,-0.464 0.191,-0.473 0.214,-0.48C0.237,-0.487 0.264,-0.49 0.296,-0.49C0.327,-0.49 0.359,-0.485 0.392,-0.474C0.425,-0.463 0.453,-0.449 0.476,-0.432L0.458,-0.408C0.437,-0.424 0.413,-0.437 0.386,-0.447C0.359,-0.457 0.328,-0.462 0.294,-0.462C0.266,-0.462 0.243,-0.459 0.224,-0.454C0.205,-0.449 0.189,-0.442 0.178,-0.433C0.166,-0.424 0.158,-0.414 0.153,-0.403C0.148,-0.392 0.146,-0.38 0.146,-0.368C0.146,-0.344 0.161,-0.324 0.191,-0.307C0.22,-0.29 0.261,-0.276 0.312,-0.263C0.351,-0.253 0.384,-0.243 0.41,-0.234C0.436,-0.224 0.457,-0.213 0.472,-0.202C0.487,-0.191 0.498,-0.178 0.505,-0.165C0.511,-0.152 0.514,-0.137 0.514,-0.12C0.514,-0.103 0.51,-0.086 0.501,-0.07C0.492,-0.054 0.48,-0.04 0.464,-0.028C0.447,-0.016 0.427,-0.006 0.404,0.001C0.38,0.008 0.353,0.012 0.322,0.012C0.272,0.012 0.227,0.005 0.188,-0.011C0.149,-0.025 0.115,-0.043 0.087,-0.064L0.106,-0.088Z" style="fill:rgb(40,150,90);fill-rule:nonzero;"/>
            </g>
            <g transform="matrix(800,0,0,800,3427.36,2814.64)">
                <rect x="0.142" y="-0.312" width="0.316" height="0.04" style="fill:rgb(40,150,90);fill-rule:nonzero;"/>
            </g>
        </g>
    </g>
</svg>
