<?xml version="1.0" encoding="UTF-8" standalone="no"?>
<!DOCTYPE svg PUBLIC "-//W3C//DTD SVG 1.1//EN" "http://www.w3.org/Graphics/SVG/1.1/DTD/svg11.dtd">
<svg width="100%" height="100%" viewBox="0 0 4096 4096" version="1.1" xmlns="http://www.w3.org/2000/svg" xmlns:xlink="http://www.w3.org/1999/xlink" xml:space="preserve" xmlns:serif="http://www.serif.com/" style="fill-rule:evenodd;clip-rule:evenodd;stroke-linejoin:round;stroke-miterlimit:2;">
    <g id="sun">
        <g transform="matrix(2.27118,0,0,2.27118,-3554.88,-1760.91)">
            <circle cx="2466.94" cy="1677.06" r="418.942" style="fill:rgb(32,32,34);"/>
        </g>
        <g transform="matrix(1.25,0,0,1.14754,159.25,-209.18)">
            <path d="M1559,339.143L1559,896.857C1559,911.286 1548.25,923 1535,923L1487,923C1473.75,923 1463,911.286 1463,896.857L1463,339.143C1463,324.714 1473.75,313 1487,313L1535,313C1548.25,313 1559,324.714 1559,339.143Z" style="fill:rgb(32,32,34);"/>
        </g>
        <g transform="matrix(1.25,0,0,1.14754,159.25,2886.82)">
            <path d="M1559,339.143L1559,896.857C1559,911.286 1548.25,923 1535,923L1487,923C1473.75,923 1463,911.286 1463,896.857L1463,339.143C1463,324.714 1473.75,313 1487,313L1535,313C1548.25,313 1559,324.714 1559,339.143Z" style="fill:rgb(32,32,34);"/>
        </g>
        <g transform="matrix(7.65404e-17,1.25,-1.14754,7.02666e-17,4305.18,159.25)">
            <path d="M1559,339.143L1559,896.857C1559,911.286 1548.25,923 1535,923L1487,923C1473.75,923 1463,911.286 1463,896.857L1463,339.143C1463,324.714 1473.75,313 1487,313L1535,313C1548.25,313 1559,324.714 1559,339.143Z" style="fill:rgb(32,32,34);"/>
        </g>
        <g transform="matrix(7.65404e-17,1.25,-1.14754,7.02666e-17,1209.18,159.25)">
            <path d="M1559,339.143L1559,896.857C1559,911.286 1548.25,923 1535,923L1487,923C1473.75,923 1463,911.286 1463,896.857L1463,339.143C1463,324.714 1473.75,313 1487,313L1535,313C1548.25,313 1559,324.714 1559,339.143Z" style="fill:rgb(32,32,34);"/>
        </g>
        <g transform="matrix(0.883883,0.883883,-0.695515,0.695515,2272.24,-847.333)">
            <path d="M1559,343.5L1559,892.5C1559,909.333 1548.25,923 1535,923L1487,923C1473.75,923 1463,909.333 1463,892.5L1463,343.5C1463,326.667 1473.75,313 1487,313L1535,313C1548.25,313 1559,326.667 1559,343.5Z" style="fill:rgb(32,32,34);"/>
        </g>
        <g transform="matrix(0.883883,0.883883,-0.695515,0.695515,12.3236,1412.58)">
            <path d="M1559,343.5L1559,892.5C1559,909.333 1548.25,923 1535,923L1487,923C1473.75,923 1463,909.333 1463,892.5L1463,343.5C1463,326.667 1473.75,313 1487,313L1535,313C1548.25,313 1559,326.667 1559,343.5Z" style="fill:rgb(32,32,34);"/>
        </g>
        <g transform="matrix(-0.883883,0.883883,-0.695515,-0.695515,4943.33,2272.24)">
            <path d="M1559,343.5L1559,892.5C1559,909.333 1548.25,923 1535,923L1487,923C1473.75,923 1463,909.333 1463,892.5L1463,343.5C1463,326.667 1473.75,313 1487,313L1535,313C1548.25,313 1559,326.667 1559,343.5Z" style="fill:rgb(32,32,34);"/>
        </g>
        <g transform="matrix(-0.883883,0.883883,-0.695515,-0.695515,2683.42,12.3236)">
            <path d="M1559,343.5L1559,892.5C1559,909.333 1548.25,923 1535,923L1487,923C1473.75,923 1463,909.333 1463,892.5L1463,343.5C1463,326.667 1473.75,313 1487,313L1535,313C1548.25,313 1559,326.667 1559,343.5Z" style="fill:rgb(32,32,34);"/>
        </g>
    </g>
</svg>
