<?xml version="1.0" encoding="UTF-8" standalone="no"?>
<!DOCTYPE svg PUBLIC "-//W3C//DTD SVG 1.1//EN" "http://www.w3.org/Graphics/SVG/1.1/DTD/svg11.dtd">
<svg width="100%" height="100%" viewBox="0 0 4096 3556" version="1.1" xmlns="http://www.w3.org/2000/svg" xmlns:xlink="http://www.w3.org/1999/xlink" xml:space="preserve" xmlns:serif="http://www.serif.com/" style="fill-rule:evenodd;clip-rule:evenodd;stroke-linecap:round;stroke-linejoin:round;stroke-miterlimit:1.5;">
    <g transform="matrix(7.19884e-17,1.17566,-1.20612,7.38538e-17,1479.31,-569.426)">
        <path d="M861.5,802L1238.65,1014.25L1238.65,1438.75L861.5,1651L484.346,1438.75L484.346,1014.25L861.5,802Z" style="fill:rgb(32,32,34);fill-opacity:0;stroke:rgb(50,49,53);stroke-width:13.99px;"/>
    </g>
    <g transform="matrix(7.19884e-17,1.17566,-1.20612,7.38538e-17,2503.31,-569.426)">
        <path d="M861.5,802L1238.65,1014.25L1238.65,1438.75L861.5,1651L484.346,1438.75L484.346,1014.25L861.5,802Z" style="fill:rgb(32,32,34);fill-opacity:0;stroke:rgb(50,49,53);stroke-width:13.99px;"/>
    </g>
    <g transform="matrix(7.19884e-17,1.17566,-1.20612,7.38538e-17,3527.31,-569.426)">
        <path d="M861.5,802L1238.65,1014.25L1238.65,1438.75L861.5,1651L484.346,1438.75L484.346,1014.25L861.5,802Z" style="fill:rgb(32,32,34);fill-opacity:0;stroke:rgb(50,49,53);stroke-width:13.99px;"/>
    </g>
    <g transform="matrix(7.19884e-17,1.17566,-1.20612,7.38538e-17,4551.31,-569.426)">
        <path d="M861.5,802L1238.65,1014.25L1238.65,1438.75L861.5,1651L484.346,1438.75L484.346,1014.25L861.5,802Z" style="fill:rgb(32,32,34);fill-opacity:0;stroke:rgb(50,49,53);stroke-width:13.99px;"/>
    </g>
    <g transform="matrix(7.19884e-17,1.17566,-1.20612,7.38538e-17,5575.31,-569.426)">
        <path d="M861.5,802L1238.65,1014.25L1238.65,1438.75L861.5,1651L484.346,1438.75L484.346,1014.25L861.5,802Z" style="fill:rgb(32,32,34);fill-opacity:0;stroke:rgb(50,49,53);stroke-width:13.99px;"/>
    </g>
    <g transform="matrix(7.19884e-17,1.17566,-1.20612,7.38538e-17,1479.31,317.384)">
        <path d="M861.5,802L1238.65,1014.25L1238.65,1438.75L861.5,1651L484.346,1438.75L484.346,1014.25L861.5,802Z" style="fill:rgb(32,32,34);fill-opacity:0;stroke:rgb(50,49,53);stroke-width:13.99px;"/>
    </g>
    <g transform="matrix(7.19884e-17,1.17566,-1.20612,7.38538e-17,2503.31,317.384)">
        <path d="M861.5,802L1238.65,1014.25L1238.65,1438.75L861.5,1651L484.346,1438.75L484.346,1014.25L861.5,802Z" style="fill:rgb(32,32,34);fill-opacity:0;stroke:rgb(50,49,53);stroke-width:13.99px;"/>
    </g>
    <g transform="matrix(7.19884e-17,1.17566,-1.20612,7.38538e-17,3527.31,317.384)">
        <path d="M861.5,802L1238.65,1014.25L1238.65,1438.75L861.5,1651L484.346,1438.75L484.346,1014.25L861.5,802Z" style="fill:rgb(32,32,34);fill-opacity:0;stroke:rgb(50,49,53);stroke-width:13.99px;"/>
    </g>
    <g transform="matrix(7.19884e-17,1.17566,-1.20612,7.38538e-17,4551.31,317.384)">
        <path d="M861.5,802L1238.65,1014.25L1238.65,1438.75L861.5,1651L484.346,1438.75L484.346,1014.25L861.5,802Z" style="fill:rgb(32,32,34);fill-opacity:0;stroke:rgb(50,49,53);stroke-width:13.99px;"/>
    </g>
    <g transform="matrix(7.19884e-17,1.17566,-1.20612,7.38538e-17,5575.31,317.384)">
        <path d="M861.5,802L1238.65,1014.25L1238.65,1438.75L861.5,1651L484.346,1438.75L484.346,1014.25L861.5,802Z" style="fill:rgb(32,32,34);fill-opacity:0;stroke:rgb(50,49,53);stroke-width:13.99px;"/>
    </g>
    <g transform="matrix(7.19884e-17,1.17566,-1.20612,7.38538e-17,1479.31,1204.19)">
        <path d="M861.5,802L1238.65,1014.25L1238.65,1438.75L861.5,1651L484.346,1438.75L484.346,1014.25L861.5,802Z" style="fill:rgb(32,32,34);fill-opacity:0;stroke:rgb(50,49,53);stroke-width:13.99px;"/>
    </g>
    <g transform="matrix(7.19884e-17,1.17566,-1.20612,7.38538e-17,2503.31,1204.19)">
        <path d="M861.5,802L1238.65,1014.25L1238.65,1438.75L861.5,1651L484.346,1438.75L484.346,1014.25L861.5,802Z" style="fill:rgb(32,32,34);fill-opacity:0;stroke:rgb(50,49,53);stroke-width:13.99px;"/>
    </g>
    <g transform="matrix(7.19884e-17,1.17566,-1.20612,7.38538e-17,3527.31,1204.19)">
        <path d="M861.5,802L1238.65,1014.25L1238.65,1438.75L861.5,1651L484.346,1438.75L484.346,1014.25L861.5,802Z" style="fill:rgb(32,32,34);fill-opacity:0;stroke:rgb(50,49,53);stroke-width:13.99px;"/>
    </g>
    <g transform="matrix(7.19884e-17,1.17566,-1.20612,7.38538e-17,4551.31,1204.19)">
        <path d="M861.5,802L1238.65,1014.25L1238.65,1438.75L861.5,1651L484.346,1438.75L484.346,1014.25L861.5,802Z" style="fill:rgb(32,32,34);fill-opacity:0;stroke:rgb(50,49,53);stroke-width:13.99px;"/>
    </g>
    <g transform="matrix(7.19884e-17,1.17566,-1.20612,7.38538e-17,5575.31,1204.19)">
        <path d="M861.5,802L1238.65,1014.25L1238.65,1438.75L861.5,1651L484.346,1438.75L484.346,1014.25L861.5,802Z" style="fill:rgb(32,32,34);fill-opacity:0;stroke:rgb(50,49,53);stroke-width:13.99px;"/>
    </g>
    <g transform="matrix(7.19884e-17,1.17566,-1.20612,7.38538e-17,1479.31,2091)">
        <path d="M861.5,802L1238.65,1014.25L1238.65,1438.75L861.5,1651L484.346,1438.75L484.346,1014.25L861.5,802Z" style="fill:rgb(32,32,34);fill-opacity:0;stroke:rgb(50,49,53);stroke-width:13.99px;"/>
    </g>
    <g transform="matrix(7.19884e-17,1.17566,-1.20612,7.38538e-17,2503.31,2091)">
        <path d="M861.5,802L1238.65,1014.25L1238.65,1438.75L861.5,1651L484.346,1438.75L484.346,1014.25L861.5,802Z" style="fill:rgb(32,32,34);fill-opacity:0;stroke:rgb(50,49,53);stroke-width:13.99px;"/>
    </g>
    <g transform="matrix(7.19884e-17,1.17566,-1.20612,7.38538e-17,3527.31,2091)">
        <path d="M861.5,802L1238.65,1014.25L1238.65,1438.75L861.5,1651L484.346,1438.75L484.346,1014.25L861.5,802Z" style="fill:rgb(32,32,34);fill-opacity:0;stroke:rgb(50,49,53);stroke-width:13.99px;"/>
    </g>
    <g transform="matrix(7.19884e-17,1.17566,-1.20612,7.38538e-17,4551.31,2091)">
        <path d="M861.5,802L1238.65,1014.25L1238.65,1438.75L861.5,1651L484.346,1438.75L484.346,1014.25L861.5,802Z" style="fill:rgb(32,32,34);fill-opacity:0;stroke:rgb(50,49,53);stroke-width:13.99px;"/>
    </g>
    <g transform="matrix(7.19884e-17,1.17566,-1.20612,7.38538e-17,5575.31,2091)">
        <path d="M861.5,802L1238.65,1014.25L1238.65,1438.75L861.5,1651L484.346,1438.75L484.346,1014.25L861.5,802Z" style="fill:rgb(32,32,34);fill-opacity:0;stroke:rgb(50,49,53);stroke-width:13.99px;"/>
    </g>
</svg>
